<?xml version="1.0" standalone="no"?>
<!DOCTYPE svg PUBLIC "-//W3C//DTD SVG 1.1//EN" "http://www.w3.org/Graphics/SVG/1.1/DTD/svg11.dtd" >
<svg xmlns="http://www.w3.org/2000/svg" xmlns:xlink="http://www.w3.org/1999/xlink" version="1.1">
<metadata></metadata>
<defs>
<font id="neoneonregular" horiz-adv-x="1032" vert-adv-y="2048" >
<font-face units-per-em="2048" ascent="1638" descent="-410" />
<missing-glyph horiz-adv-x="712" />
<glyph horiz-adv-x="0" vert-adv-y="0" />
<glyph horiz-adv-x="682" />
<glyph unicode=" " horiz-adv-x="712" vert-adv-y="0" />
<glyph unicode="!" horiz-adv-x="616" vert-adv-y="0" d="M0 1607q0 12 9.5 21.5t21.5 9.5h234q80 0 114 -36.5t34 -123.5q0 -35 -8 -263.5t-17.5 -476t-18.5 -475.5t-9 -234v-3v-3l-1 -3v-2l-2 -3l-1 -2l-2 -3l-3 -2l-2 -1l-2 -2l-3 -2l-2 -1h-3l-1 -2h-7h-247q-12 0 -21 9.5t-9 21.5v2v3l-3 105q0 12 8.5 21.5t20.5 9.5 t21.5 -8.5t9.5 -20.5l2 -82h188q2 45 15.5 410.5t24.5 665.5t11 341q0 64 -17 82t-70 18h-234q-12 0 -21.5 8.5t-9.5 20.5zM7 1406q0 12 8.5 20.5t20.5 8.5t21.5 -8t9.5 -20l30 -837l3 -113q1 -44 9.5 -68.5t16.5 -30t20 -6.5h60q12 0 22 -8.5t10 -20.5t-10 -21t-22 -9h-62 h-5q-51 7 -74.5 45.5t-25.5 116.5l-1 22q0 22 -1 49.5t-1 40.5z" />
<glyph unicode="&#x22;" horiz-adv-x="1091" vert-adv-y="0" d="M21 1366q-30 74 4 154q32 76 109 107q76 31 153 -2q74 -32 106 -111q31 -77 -1 -152l-89 -205q-18 -46 -64 -81q-37 -26 -72 -26q-26 0 -49 10q-11 5 -15.5 16.5t0.5 22.5t16 15.5t22 -0.5q30 -14 64 10q31 22 44 56l90 204q23 53 2 109q-20 53 -77 78q-53 23 -108 2 t-79 -76q-23 -53 -2 -108q20 -53 76 -78q11 -5 16 -17t0 -23q-12 -26 -38 -14q-77 33 -108 109zM501 1366q-31 76 2 154q33 77 110 107.5t154 -2.5q76 -33 106 -110t-3 -153l-88 -204q-19 -47 -64 -82q-37 -26 -72 -26q-27 0 -50 10q-11 5 -15 16.5t1 22.5q12 26 37 15 q30 -14 64 10t46 56l89 204q23 54 1.5 109t-75.5 78t-110 1.5t-79 -75.5q-23 -51 -1 -108q20 -53 77 -78q11 -5 15.5 -17t-0.5 -23q-12 -26 -38 -14q-76 32 -107 109z" />
<glyph unicode="#" horiz-adv-x="1378" vert-adv-y="0" d="M-2 473v210q0 12 9.5 21t21.5 9h209l31 211h-182q-12 0 -21.5 9.5t-9.5 21.5v207q0 12 9.5 21.5t21.5 9.5h221l61 419q2 11 10 18.5t19 7.5h203q17 0 23 -9q10 -14 7 -25l-64 -446q-1 -12 -12 -20t-23 -6q-12 1 -19 12t-5 23l57 411h-141l-60 -420q-1 -11 -10 -18.5 t-20 -7.5h-218v-147h187q14 0 23 -12q9 -13 7 -23l-40 -272q-2 -11 -10 -18.5t-19 -7.5h-205v-149h174q14 0 21 -10q10 -15 8 -24l-59 -408h146l90 625l38 272q2 12 11.5 20t21.5 7t20 -12t6 -23l-36 -272l-94 -652q-1 -11 -10.5 -18.5t-20.5 -7.5h-206q-18 0 -25 10 q-9 12 -6 24l59 408h-168q-12 0 -21.5 9.5t-9.5 21.5zM539 34l66 444q1 12 11.5 19.5t22.5 5.5q12 -1 19.5 -11.5t5.5 -22.5l-59 -408h145l61 416q2 11 10 18.5t19 7.5h217v149h-189q-16 0 -23 10q-9 12 -6 24l39 272q2 11 10.5 19t19.5 8h206v147h-174q-15 0 -22 10 q-11 16 -9 25l59 411h-142l-92 -628l-41 -272q-1 -12 -11.5 -20t-22.5 -6q-12 1 -19.5 11.5t-5.5 22.5l39 272l97 654q1 11 10.5 18.5t20.5 7.5h202q17 0 23 -9q11 -15 8 -25l-59 -411h170q12 0 21 -9.5t9 -21.5v-207q0 -12 -9 -21.5t-21 -9.5h-211l-30 -211h184 q12 0 20.5 -9t8.5 -21v-210q0 -12 -8.5 -21.5t-20.5 -9.5h-221l-61 -416q-2 -11 -10 -18.5t-19 -7.5h-208q-16 0 -23 10q-10 13 -7 24z" />
<glyph unicode="%" horiz-adv-x="1396" vert-adv-y="0" d="M15 1348q-32 80 5 164q35 78 118 112q80 32 162 -4q80 -35 113 -118q32 -79 -5 -163q-33 -77 -110 -110q-3 -2 -10 -2q-15 0 -21 15q-4 8 0 17.5t12 13.5q61 26 86 85q27 63 2.5 127t-87.5 91q-63 28 -126 3q-65 -26 -92 -86q-28 -64 -3 -128q25 -65 87 -92 q8 -4 12.5 -13.5t0.5 -17.5t-13.5 -12t-17.5 0q-81 36 -113 118zM190 20v8q0 1 1 2.5t1 2.5l624 1591q5 14 21 14h146q14 0 20 -9q5 -13 1 -23l-283 -725q-4 -8 -13.5 -12.5t-17.5 -0.5t-12.5 13.5t-0.5 17.5l272 692h-95l-605 -1543h93l277 704q4 8 13.5 12.5t17.5 0.5 q9 -4 13.5 -13.5t0.5 -17.5l-284 -719q-6 -15 -21 -15h-144h-2h-3q-5 0 -8 3q-4 3 -7 7q-5 5 -5 10zM781 122q-32 83 4 163t119 112t163 -4t112 -119t-4 -163q-32 -75 -112 -109q-3 -2 -8 -2q-17 0 -23 15q-4 8 0.5 17.5t12.5 13.5q62 26 87 85q27 63 2.5 127t-87.5 91 t-127 3t-91 -87t-3 -127.5t87 -91.5q8 -4 11.5 -13.5t-0.5 -17.5t-13.5 -12t-17.5 0q-80 36 -112 119z" />
<glyph unicode="&#x26;" horiz-adv-x="1335" vert-adv-y="0" d="M-2 482q0 65 12.5 123.5t30 100t45 80.5t50 62.5t54 47t46.5 32.5t38 21v1q92 45 146 75.5t108.5 70t79 80.5t24.5 87q0 112 -68 112q-26 0 -43.5 -13.5t-24 -34t-9 -34.5t-2.5 -25q0 -13 3 -28q2 -11 -5.5 -21t-18.5 -11q-12 -2 -21 4t-10 18q-4 26 -4 38q0 66 35 115 t100 49q59 0 91.5 -45t32.5 -124q0 -47 -19.5 -89.5t-50 -76t-84.5 -70t-105 -64t-129 -65.5q-32 -17 -53.5 -31t-61.5 -51t-65.5 -78t-45.5 -109t-20 -147q0 -21 2 -46t10.5 -68.5t23 -82.5t43 -82t66.5 -74t97 -51.5t132 -20.5q102 0 169 26.5t129 73.5q-8 13 -28 43 q-229 340 -303 473q-74 -71 -74 -181q0 -30 5 -54.5t19 -52t44.5 -50t75.5 -37.5q11 -4 16.5 -14.5t1.5 -21.5t-15 -16.5t-22 -1.5q-181 62 -181 248q0 160 122 249q10 7 23 4q14 -3 19 -16q59 -117 316 -496q9 -14 23.5 -36t19.5 -30q3 -3 3 -8q0 -1 1 -6t1 -7q0 -4 -5 -12 l-6 -6q-84 -64 -160.5 -96t-193.5 -32q-92 0 -166.5 29t-122.5 76.5t-80.5 111t-46.5 129.5t-14 136zM164 1244q0 73 22 142t64.5 126t113 91.5t159.5 34.5q96 0 169 -35.5t113.5 -94t60 -125.5t19.5 -139q0 -64 -13.5 -119.5t-33.5 -93.5t-51.5 -74.5t-56.5 -58t-60 -46.5 q62 -112 138 -208q50 106 70 285q0 13 10 20q12 9 23 6l197 -34q22 -3 22 -31q-11 -257 -145 -497l121 -188q13 -18 -7 -36l-193 -162q-7 -7 -18 -7q-16 0 -23 10q-7 8 -6 20.5t9 20.5l176 144l-117 182q-8 13 0 29q131 225 146 462l-142 25q-25 -195 -92 -315 q-9 -14 -21 -14q-16 0 -25 9q-43 46 -97 127.5t-88 144.5q-13 24 6 38q33 24 49.5 37t47 40t46.5 52t35 60.5t27 78.5t8 93q0 64 -13.5 117t-34 87t-49.5 60t-56.5 39.5t-59 21.5t-52 10t-39.5 2q-68 0 -122.5 -23t-87.5 -59t-54.5 -82.5t-29.5 -89t-8 -83.5q0 -51 21 -133 q2 -12 -2.5 -23t-15.5 -13q-12 -2 -23 3t-13 16q-24 90 -24 150z" />
<glyph unicode="'" horiz-adv-x="612" vert-adv-y="0" d="M21 1368q-30 73 4 152q32 76 109 107q76 31 153 -2q75 -32 106 -109t-1 -153l-89 -205q-19 -47 -64 -82q-35 -24 -72 -24q-26 0 -49 10q-26 12 -15 37q5 11 16 15.5t22 -0.5q30 -14 64 10q30 22 44 57l90 203q24 54 2 110q-20 52 -77 77q-53 23 -108 2t-79 -76 q-23 -53 -2 -108q20 -53 76 -78q12 -5 16.5 -16t-0.5 -22t-16 -15.5t-22 0.5q-76 33 -108 110z" />
<glyph unicode="(" horiz-adv-x="686" vert-adv-y="0" d="M2 816v59q0 11 8.5 19.5t20.5 8.5q11 0 19.5 -9.5t8.5 -20.5q0 -10 -1 -28.5t-1 -28.5q0 -260 61.5 -506t145.5 -412h147q-101 258 -150 684q-7 59 -22.5 106.5t-29.5 75.5t-47 83l-29 48q-35 59 -53.5 95.5t-33.5 98.5t-8 119q57 334 183 565q9 14 25 14h208 q16 0 24 -13q7 -12 2 -26q-148 -364 -170 -791q0 -11 -9 -18.5t-21 -7.5q-11 0 -18.5 8.5t-7.5 20.5q19 410 159 772h-149q-118 -223 -171 -534q-7 -48 7 -101t30.5 -84t51.5 -89l28 -47q50 -82 73 -139t33 -150q51 -437 164 -708q5 -14 -2 -26q-7 -11 -24 -11h-208 q-18 0 -25 14q-88 166 -153.5 425t-65.5 534z" />
<glyph unicode=")" horiz-adv-x="686" vert-adv-y="0" d="M2 -120q-5 -13 3 -26q7 -11 24 -11h209q17 0 24 14q88 167 154 425.5t66 533.5q0 10 -1 29.5t-1 29.5q0 11 -8 19.5t-20 8.5q-11 0 -19.5 -9.5t-8.5 -20.5q0 -10 1 -28.5t1 -28.5q0 -260 -61 -506t-145 -412h-150q105 269 153 684q10 84 31 135.5t67 129.5l28 48 q27 46 40.5 71.5t32.5 69.5t24.5 86t-0.5 86q-56 332 -184 565q-9 14 -24 14h-209q-16 0 -24 -13t-3 -26q148 -364 170 -791q0 -11 9.5 -18.5t21.5 -7.5q11 0 18.5 8.5t7.5 20.5q-19 410 -159 772h150q116 -220 170 -534q7 -48 -7 -101t-30.5 -84t-51.5 -89l-27 -47 q-34 -57 -50.5 -88t-33 -83.5t-23.5 -117.5q-50 -434 -165 -708z" />
<glyph unicode="*" horiz-adv-x="1091" vert-adv-y="0" d="M0 1124v175q0 8 6 15t14 7h180q40 0 67.5 -11.5t41 -26t33.5 -43.5l272 -401l112 75l-49 74q-11 16 6 28q16 12 28 -5l61 -90q12 -18 -5 -30l-148 -98q-5 -3 -14 -3q-8 0 -14 10l-281 417q-17 25 -27 35.5t-30.5 19t-52.5 8.5h-159v-136h236q15 0 20 -12q3 -8 -2 -21 l-133 -197l113 -75l71 105q12 17 29 5t5 -28l-82 -123q-5 -8 -18 -8q-6 0 -10 3l-147 98q-19 13 -7 30l123 182h-219q-8 0 -14 6.5t-6 14.5zM116 1502q-11 16 7 28l147 100q16 11 28 -6l26 -38q26 -39 63.5 -94.5t76.5 -114.5t72 -107.5t44 -65.5q25 -39 46 -49.5t69 -10.5 h154v136h-238q-13 0 -18 11q-4 10 0 20l133 196l-112 77l-68 -101q-12 -17 -30 -5q-17 12 -5 28l80 118q5 9 14 9t14 -3l148 -100q17 -12 5 -28l-123 -181h219q8 0 14 -7t6 -15v-175q0 -8 -6 -14.5t-14 -6.5h-173q-59 0 -88 15.5t-61 64.5q-47 71 -271 401l-113 -77l51 -73 q12 -17 -7 -30q-16 -11 -27 5z" />
<glyph unicode="+" horiz-adv-x="1452" vert-adv-y="0" d="M0 500v249q0 12 9.5 20.5t21.5 8.5h439v441q0 12 9 20.5t21 8.5h249q12 0 20.5 -8.5t8.5 -20.5v-270q0 -12 -8.5 -21.5t-20.5 -9.5t-21.5 9.5t-9.5 21.5v239h-187v-439q0 -12 -9.5 -21.5t-21.5 -9.5h-439v-187h439q12 0 21.5 -9.5t9.5 -21.5v-439h187v688q0 12 9.5 20.5 t21.5 8.5h470q12 0 20.5 -8.5t8.5 -20.5v-249q0 -12 -8.5 -21t-20.5 -9h-269q-12 0 -21.5 9t-9.5 21t9.5 21.5t21.5 9.5h238v187h-410v-687q0 -12 -8.5 -21.5t-20.5 -9.5h-249q-12 0 -21 9.5t-9 21.5v439h-439q-12 0 -21.5 9t-9.5 21z" />
<glyph unicode="," horiz-adv-x="620" vert-adv-y="0" d="M18 110q-31 79 2 155q33 77 114 109q78 31 158 -2q78 -32 109 -111q31 -80 -1 -156l-92 -207q-18 -42 -56.5 -75t-84.5 -33q-23 0 -49 10q-11 5 -16 16.5t0 22.5t16.5 15.5t22.5 -0.5q37 -16 67.5 10t43.5 57l92 207q25 56 2 110q-23 56 -77 78q-59 25 -113 2 q-58 -24 -81 -77q-24 -54 -1 -108q25 -59 77 -81q27 -13 16 -37q-5 -11 -16.5 -15.5t-22.5 0.5q-80 33 -110 110z" />
<glyph unicode="-" horiz-adv-x="704" vert-adv-y="0" d="M-3 709v189q0 12 8.5 20.5t20.5 8.5h446q12 0 20.5 -8.5t8.5 -20.5v-189q0 -12 -8.5 -20.5t-20.5 -8.5t-21 8.5t-9 20.5v159h-386v-129h193q12 0 21 -9t9 -21t-9 -19.5t-21 -7.5h-223q-12 0 -20.5 7.5t-8.5 19.5z" />
<glyph unicode="." horiz-adv-x="618" vert-adv-y="0" d="M16 116q-31 79 5 156q35 75 115 106q77 30 157 -3q77 -35 108 -113.5t-3 -155.5q-31 -71 -108 -103q-4 -3 -11 -3q-20 0 -28 18q-5 11 0 22.5t16 16.5q53 23 75 74q26 56 4 110q-24 57 -76 80q-55 23 -113 2q-56 -20 -82 -76q-26 -55 -3 -109q23 -56 79 -79 q11 -5 15 -16.5t-1 -22.5t-16.5 -15.5t-22.5 0.5q-79 33 -110 111z" />
<glyph unicode="/" horiz-adv-x="1021" vert-adv-y="0" d="M3 20v8q0 1 1 2.5t1 2.5l623 1591q5 14 22 14h145q13 0 19 -9q7 -16 4 -23l-286 -725q-4 -9 -12.5 -13t-16.5 0q-9 4 -14 13.5t-1 17.5l272 692h-93l-606 -1543h95l277 704q4 8 13.5 12.5t17.5 0.5t12.5 -13.5t0.5 -17.5l-284 -719q-6 -15 -23 -15h-144h-5q-3 0 -6 3 q-3 2 -8 7q-4 4 -4 10z" />
<glyph unicode="0" horiz-adv-x="1085" vert-adv-y="0" d="M0 793q0 87 3.5 161.5t15 163.5t30.5 160t52.5 140.5t79 116t112 75t148.5 28.5q440 0 440 -788v-1q0 -378 -83 -592q-48 -124 -143.5 -190.5t-225.5 -66.5q-170 0 -273.5 109.5t-124.5 311.5q-23 220 133 364q93 86 120 135t27 101q3 189 13 247q12 63 36.5 97t81.5 34 q51 0 75 -34t34 -90q19 -95 19 -413q0 -396 -15 -500q-3 -17 -5.5 -27t-11.5 -30.5t-20.5 -32.5t-32 -22.5t-46.5 -10.5q-101 0 -118 136q-6 44 -15 328q0 12 8 20.5t20 8.5t21 -7.5t9 -19.5q7 -255 14 -323q8 -54 22 -69.5t39 -15.5q27 0 39 17.5t20 57.5q15 93 15 490 q0 317 -18 401q-7 36 -17.5 55t-17.5 21.5t-18 2.5q-17 0 -25 -3t-19 -21.5t-18 -57.5q-8 -61 -11 -241q0 -66 -33.5 -124.5t-132.5 -150.5q-134 -125 -115 -316q5 -48 15.5 -92t35.5 -97.5t60 -91.5t95 -64t135 -26q113 0 193 57t122 165q80 206 80 570q0 375 -93.5 553.5 t-289.5 178.5q-199 0 -291.5 -189.5t-92.5 -598.5q0 -12 -8 -20t-20 -8t-20.5 8t-8.5 20z" />
<glyph unicode="1" horiz-adv-x="946" vert-adv-y="0" d="M2 1298q-5 18 6 29l300 303q8 8 20 8h236q12 0 19.5 -8.5t7.5 -20.5v-1108q0 -12 -7.5 -20.5t-19.5 -8.5t-21 8.5t-9 20.5v1078h-193l-279 -280l56 -167l136 2q13 0 20 -7q9 -9 9 -21v-596v-66q0 -70 22.5 -89t72.5 -19h110h226q12 0 20 -9t8 -21v-277q0 -12 -8 -20.5 t-20 -8.5h-629q-12 0 -20.5 8.5t-8.5 20.5v277q0 12 8.5 21t20.5 9t21 -9t9 -21v-247h570v218h-197h-110q-32 0 -56 6t-47.5 22t-36 51t-12.5 88v66v1l-2 565l-126 -1q-23 0 -28 19z" />
<glyph unicode="2" horiz-adv-x="1073" vert-adv-y="0" d="M0 23v5v1v5q0 1 1 2t1 2v1l1 4l2 1l2 4l1 1q3 3 5 3q135 90 277.5 232t258.5 296.5t190 315t74 277.5q0 87 -21.5 157.5t-57 116.5t-84 77t-100 44t-106.5 13q-84 0 -149.5 -29t-104.5 -72t-67 -107t-40.5 -120t-21.5 -126l201 -51q3 60 11.5 106.5t26 91t50.5 68.5 t79 24q133 0 133 -177q0 -65 -11 -125.5t-27.5 -112.5t-51 -113t-67 -109t-92 -119t-108 -125.5t-131.5 -145.5q-8 -8 -20.5 -8.5t-20.5 7.5t-9 19.5t7 19.5q94 102 147 162.5t115.5 137.5t94.5 131t62 119.5t41.5 128t11.5 133.5q0 63 -18 91.5t-56 28.5q-19 0 -35 -9 t-33.5 -34.5t-28.5 -83t-14 -143.5q0 -13 -12 -22q-10 -7 -24 -4l-261 63q-10 2 -16 11.5t-5 20.5q4 42 8 72t17.5 90t31.5 103.5t52.5 96.5t78 87t110 57.5t146.5 23.5q62 0 120.5 -15t114.5 -50t98 -87t67.5 -133t25.5 -180q0 -118 -66.5 -272.5t-173 -305.5t-240.5 -293 t-270 -245h693v238h-235q-12 0 -20.5 8t-8.5 20t8.5 20.5t20.5 8.5h262q12 0 21 -8.5t9 -20.5v-294q0 -12 -9 -20.5t-21 -8.5h-811h-6l-2 2q-1 0 -2.5 0.5t-2.5 0.5h-1l-4 4l-1 1l-5 5l-2 2l-1 3v3z" />
<glyph unicode="3" horiz-adv-x="1085" vert-adv-y="0" d="M0 480q0 28 23 31l251 44q13 3 23 -4q11 -8 11 -20q7 -99 31 -148t80 -49q49 0 79.5 35.5t30.5 140.5q0 47 -10 77q-2 11 4.5 22.5t17.5 13.5q12 2 22 -3.5t12 -16.5q10 -37 10 -93q0 -235 -166 -235q-147 0 -167 220l-193 -36q12 -171 98 -279q99 -123 285 -123 q179 0 280.5 115.5t101.5 320.5q0 122 -72 185q-124 109 -441 71q-13 0 -21 6q-10 7 -10 23v159q0 11 8.5 19.5t19.5 8.5l56 3q32 4 48 7.5t37 15.5t30.5 33t16.5 58.5t7 92.5q0 30 -4 57.5t-22.5 56t-50.5 28.5q-24 0 -40.5 -12t-27 -37.5t-16 -49t-11.5 -61.5 q0 -11 -13 -20q-11 -8 -21 -5l-245 59q-11 2 -17 12t-4 21v3q7 34 12 56t20.5 69t34 80.5t51.5 75t73 67.5t98.5 44.5t128.5 18.5q187 0 292.5 -114t105.5 -316q0 -192 -84 -292q-8 -8 -20 -9t-20 6q-8 8 -9.5 20.5t5.5 20.5q71 88 71 254q0 42 -5.5 83t-26.5 96.5 t-55.5 95.5t-100 69t-153.5 29q-288 0 -357 -341l187 -44q31 177 147 177q63 0 98.5 -52t35.5 -146q0 -80 -13 -131.5t-41.5 -78t-58 -36.5t-77.5 -16l-32 -2v-102q320 30 452 -88q91 -81 91 -228q0 -74 -14.5 -143t-47.5 -133.5t-82.5 -112t-125 -76t-169.5 -28.5 q-214 0 -331 144q-102 128 -111 336z" />
<glyph unicode="4" horiz-adv-x="1003" vert-adv-y="0" d="M0 426v260q0 11 2 14l426 922q8 16 26 16h318q12 0 20 -8.5t8 -20.5v-923q0 -12 -8 -19.5t-20 -7.5h-472h-5q-5 0 -10 3q-6 4 -10 10q-3 4 -3 11v8q0 1 1 3.5t1 3.5l203 501q8 21 31 17q10 -1 16.5 -9.5t6.5 -18.5v-315q0 -12 -8 -20t-20 -8t-20 8t-8 20v169l-134 -326 h401v865h-270l-415 -899v-227h715q12 0 20 -8.5t8 -20.5v-397q0 -12 -8 -20.5t-20 -8.5h-277q-12 0 -20 8.5t-8 20.5v210q0 12 8 20t20 8t20 -8t8 -20v-182h219v341h-713q-12 0 -20.5 8t-8.5 20z" />
<glyph unicode="5" horiz-adv-x="1093" vert-adv-y="0" d="M-2 467q0 24 23 29l256 53q14 3 23 -3q11 -8 11 -22q10 -92 33.5 -138.5t83.5 -46.5t84 48.5t24 171.5q0 95 -13 175q-2 12 4.5 22t18.5 11q12 2 22.5 -4.5t11.5 -18.5q13 -83 13 -185q0 -27 -0.5 -40.5t-2 -43.5t-6 -48t-11.5 -44t-19.5 -41.5t-29 -31t-41.5 -23 t-55 -7.5q-147 0 -171 207l-200 -43q4 -47 14 -92t36.5 -101t65 -97t105.5 -69t153 -28q202 0 301 115.5t99 351.5q0 99 -33 177t-88.5 125t-123.5 71.5t-142 24.5q-90 0 -169.5 -26.5t-115.5 -51.5t-51 -43l-2 -1q-2 -3 -8 -7q-4 -3 -11 -3q-11 0 -12 1q-3 2 -8 7 q-2 2 -8 10q-2 3 -2 11v2l41 790q0 11 9 19t21 8h667q15 0 21 -9q8 -8 8 -22l-26 -296q-1 -11 -10 -18.5t-20 -7.5h-401l-10 -155q0 -12 -9 -19t-22 -7q-12 0 -19 9t-7 22l10 181q0 11 9.5 18.5t21.5 7.5h401l21 239h-607l-38 -695q137 94 326 94q83 0 160.5 -28t142.5 -82 t104 -143.5t39 -202.5q0 -257 -117 -390.5t-342 -133.5q-78 0 -142.5 20.5t-107.5 52.5t-76.5 77t-52 86.5t-31.5 90t-17 79.5t-6 61z" />
<glyph unicode="6" horiz-adv-x="1093" vert-adv-y="0" d="M0 824q7 281 75 477q59 168 163 254.5t245 82.5q193 -5 303 -141q83 -103 104 -280q2 -11 -5.5 -20.5t-19.5 -10.5l-239 -33q-11 0 -21 7q-12 9 -12 20q-1 18 -5 37t-14.5 50t-33.5 51t-55 21q-54 2 -82.5 -37t-42.5 -158q-2 -12 -11 -19t-21 -6q-28 4 -25 31 q13 123 52 185.5t127 62.5q1 0 2.5 -1t2.5 -1q70 -1 110.5 -53t51.5 -129l180 25q-18 138 -87 222q-92 115 -260 120q-248 5 -353 -298q-66 -187 -70 -461q-8 -381 80 -565q93 -195 302 -200h10q68 0 124.5 21.5t93.5 54.5t65 79t43.5 90t25.5 94t12.5 82.5t3.5 63.5 q5 200 -77.5 329.5t-217.5 131.5h-6q-123 0 -162 -123q-12 -39 -19.5 -128t-9 -138.5t-1.5 -71.5q0 -46 5 -85.5t16 -77t34 -59.5t55 -23q48 -3 70 54q14 38 18 160q4 222 -37 277q-17 22 6 39q22 17 39 -5q32 -43 42.5 -118t8.5 -194q-3 -120 -23 -177q-36 -98 -126 -94 q-31 1 -58 14.5t-52.5 45.5t-40 94.5t-14.5 150.5q0 254 32 352q25 79 83.5 121.5t141.5 40.5q160 -4 258 -147.5t93 -368.5q-2 -102 -22 -186t-49 -139t-69 -96.5t-78.5 -63.5t-81.5 -36t-72.5 -17.5t-57.5 -3.5h-8q-242 5 -351 233q-98 203 -88 591z" />
<glyph unicode="7" horiz-adv-x="1030" vert-adv-y="0" d="M0 1332v277q0 12 8.5 20.5t20.5 8.5h556q17 0 26 -14t0 -28q-1 -3 -96 -184.5t-201 -385t-126 -241.5q-37 -72 -48 -112.5t-11 -115.5v-498h277q0 47 -0.5 245.5t-0.5 247.5q0 140 39 231l2 2l288 503q16 29 23.5 68.5t9 71t1.5 88.5v93q0 12 9 20.5t21 8.5t20 -8.5 t8 -20.5v-92q0 -90 -7.5 -148.5t-33.5 -108.5l-287 -501q-36 -92 -36 -207l2 -523q0 -12 -9 -21q-8 -8 -21 -8h-334q-12 0 -21 8.5t-9 20.5v528q0 82 13.5 128.5t54.5 127.5q142 277 399 766h-478v-217h179q12 0 20.5 -9t8.5 -21t-8.5 -20.5t-20.5 -8.5h-209 q-12 0 -20.5 8.5t-8.5 20.5z" />
<glyph unicode="8" horiz-adv-x="1155" vert-adv-y="0" d="M0 423q0 73 22 143.5t53 119.5q6 10 17 12.5t21 -2.5l223 -113q22 -12 13 -36q-10 -29 -10 -77q0 -33 5.5 -62t18 -56t38.5 -43t63 -16q61 0 95 49q26 37 31 91.5t-13 102.5q-29 73 -84 113q-32 23 -113 65q-9 4 -25.5 12.5t-25.5 12.5q-54 26 -84 42.5t-70.5 51.5 t-64.5 78q-18 34 -26 52q-43 98 -43 218q0 208 119 332.5t318 124.5q116 0 203.5 -36t136.5 -96t72.5 -127.5t23.5 -141.5q0 -119 -57 -215q-6 -10 -17.5 -12.5t-21.5 3.5t-13 17.5t3 21.5q47 78 47 185q0 91 -34 160t-90 107t-120 56.5t-133 18.5q-72 0 -136.5 -22 t-120 -66.5t-88.5 -124.5t-33 -185q0 -110 36 -191q23 -47 26 -51q29 -51 74.5 -82.5t117.5 -65.5q36 -16 54 -26q68 -35 118 -69q73 -51 106 -139q23 -62 16 -130.5t-40 -118.5q-51 -74 -144 -74q-86 0 -135 63t-49 173q0 43 7 72l-176 90q-52 -97 -52 -209q0 -165 97 -262 q102 -102 301 -102q208 0 321 110.5t113 312.5q0 127 -44 214q-59 124 -200 187l-87 39l-9 7q-36 17 -58 28.5t-51.5 31.5t-50 45t-32.5 56q-14 36 -19.5 82t2.5 99t32 89q40 60 114 60q68 0 107 -54t39 -150q0 -37 -8 -74q-2 -12 -12.5 -18.5t-22.5 -4.5t-18 12t-4 22 q6 40 6 63q0 24 -3.5 46.5t-12 46.5t-27 38.5t-44.5 14.5q-43 0 -67 -35q-26 -48 -26 -109t18 -107q12 -31 42 -57.5t50.5 -37.5t69.5 -35l10 -5q14 -6 43 -20t44 -20q160 -73 227 -213q51 -103 51 -241q0 -226 -130.5 -354t-362.5 -128q-222 0 -342 120q-115 115 -115 303z " />
<glyph unicode="9" horiz-adv-x="1101" vert-adv-y="0" d="M0 421q-2 11 5.5 20.5t19.5 10.5l240 33q13 0 23 -7q12 -9 12 -19q1 -18 5 -37t14.5 -50t33.5 -51t55 -21h3q53 0 81.5 40t41.5 155q1 12 11 19t22 5q12 -1 19 -10t5 -21q-15 -125 -54.5 -186.5t-130.5 -60.5q-71 1 -111 53t-51 130l-182 -24q19 -142 87 -223 q92 -115 261 -120q249 -8 355 299q68 194 72 460q7 380 -82 565q-96 196 -303 200q-70 1 -128.5 -19t-96.5 -53t-67.5 -79.5t-45 -91t-25.5 -95t-13 -83.5t-4 -64q-5 -200 78.5 -329t218.5 -131q128 -3 170 123q12 39 19.5 127.5t9 137t1.5 70.5q0 46 -5 86t-16 78t-34 60.5 t-55 23.5q-49 3 -71 -54q-15 -41 -19 -161q-4 -222 37 -277q17 -22 -5 -39q-10 -8 -22 -6.5t-19 11.5q-32 43 -42.5 118t-7.5 195t23 177q35 93 127 93q31 -1 58 -14.5t52.5 -45t40.5 -94.5t15 -151q0 -257 -31 -352q-25 -79 -84 -121.5t-142 -40.5q-162 4 -261.5 148 t-94.5 368q2 105 23 190.5t51.5 141t72.5 96.5t81.5 62.5t84 34t73 15.5t55.5 2q246 -5 354 -232q98 -203 88 -592q-8 -289 -75 -476q-58 -165 -160.5 -251.5t-241.5 -86.5h-9q-196 5 -307 141q-36 45 -60.5 106.5t-30 93t-12.5 80.5z" />
<glyph unicode=":" horiz-adv-x="618" vert-adv-y="0" d="M16 113q-31 78 5 154q36 77 115 108q74 29 157 -5q77 -35 108 -113t-3 -155q-30 -70 -108 -102q-4 -3 -11 -3q-20 0 -28 18q-11 24 16 37q53 23 75 74q27 57 4 112q-23 54 -76 78q-56 23 -113 3q-55 -20 -82 -77q-25 -54 -3 -108q24 -57 79 -80q11 -5 15 -16.5t-1 -22.5 t-16.5 -15.5t-22.5 0.5q-78 32 -110 113zM16 924q-31 79 5 156q35 75 115 106q77 30 157 -3q78 -35 108.5 -112.5t-3.5 -154.5q-32 -73 -108 -105q-3 -2 -11 -2q-20 0 -28 18q-5 11 -0.5 22t16.5 16q53 23 75 74q27 57 4 111q-23 56 -76 79q-56 23 -113 3q-56 -20 -82 -75 t-3 -110q24 -57 79 -80q11 -5 15 -17t-1 -23t-16.5 -15t-22.5 1q-79 33 -110 111z" />
<glyph unicode=";" horiz-adv-x="620" vert-adv-y="0" d="M16 929q-31 78 5 154q36 77 115 108q74 29 157 -5q78 -35 108.5 -112.5t-3.5 -154.5q-31 -71 -108 -103q-5 -3 -11 -3q-20 0 -28 18q-11 24 16 37q53 23 75 74q27 57 4 111q-23 55 -76 79q-56 23 -113 3q-55 -20 -82 -77q-25 -54 -3 -108q24 -57 79 -80q11 -5 15 -16.5 t-1 -22.5t-16.5 -15.5t-22.5 0.5q-78 32 -110 113zM18 111q-31 79 2 156q33 76 114 108q77 30 158 -3q78 -32 109 -111q31 -80 -1 -156l-92 -207q-18 -42 -56.5 -75t-84.5 -33q-18 0 -49 12q-27 13 -16 37q5 12 16.5 17t22.5 0q37 -16 67.5 10t43.5 57l92 206q25 56 2 110 q-24 57 -77 79q-58 24 -113 1q-58 -24 -81 -77q-24 -54 -1 -109q24 -57 77 -79q11 -5 16 -16.5t0 -22.5t-16.5 -15.5t-22.5 0.5q-79 33 -110 111z" />
<glyph unicode="&#x3c;" horiz-adv-x="892" vert-adv-y="0" d="M5 877q-11 21 13 34l632 303q16 6 27 -2t11 -23v-273q0 -18 -15 -23q-5 -2 -134 -60t-272.5 -123t-168.5 -79q-32 -17 -32 -44q0 -25 31 -41q17 -8 246 -112t294 -134v196l-211 87q-10 4 -14.5 14.5t-0.5 20.5q9 22 33 13l229 -94q15 -5 15 -24v-254q0 -13 -11 -21 q-6 -4 -15 -4q-7 0 -10 2q-1 1 -275.5 125.5t-302.5 138.5q-59 30 -59 87q0 59 59 90q58 31 563 255v217l-598 -286q-21 -11 -34 14z" />
<glyph unicode="&#x3e;" horiz-adv-x="888" vert-adv-y="0" d="M-2 259v273q0 18 15 23q5 2 134 60.5t272.5 124t168.5 79.5q33 17 33 41q0 28 -31 43q-16 9 -123.5 57.5t-239 107.5t-178.5 81v-195l213 -89q10 -4 13.5 -14t-0.5 -20t-14 -13.5t-20 0.5l-226 95q-17 5 -17 23v253q0 13 12 22q9 7 24 1q2 -1 277 -125t302 -138t43 -37 t16 -50q0 -58 -59 -89q-75 -40 -564 -257v-216l598 285q10 5 20 1.5t15 -13.5q11 -21 -14 -34l-634 -303q-4 -3 -9 -3q-7 0 -15 5q-12 9 -12 21z" />
<glyph unicode="?" horiz-adv-x="1054" vert-adv-y="0" d="M0 1122q-10 249 123 387q40 42 90.5 70.5t99 40t78 15t56.5 3.5q28 0 58.5 -3.5t80.5 -18.5t92 -40.5t85.5 -75t68.5 -116.5v-1h2q13 -46 16 -87.5t-1 -74t-18.5 -63t-28 -52.5t-39 -44t-43.5 -35t-48 -29t-45.5 -23t-44.5 -20q-18 -7 -59 -29q-66 -39 -106.5 -77 t-60.5 -85t-26 -92t-6 -117v-103q0 -81 35 -100h67q12 0 20 -8.5t8 -20.5t-8 -21t-20 -9h-74q-5 0 -11 4q-76 31 -76 155v103q0 81 8.5 135t32.5 106.5t69 94.5t118 85q31 17 66 32t54 24t52 28.5t51.5 37t39.5 45.5t28.5 58.5t7 73t-13.5 90.5q-22 57 -59 99t-73.5 63 t-79.5 34t-69 15.5t-50 2.5q-33 0 -70.5 -5t-102 -32t-109.5 -74q-106 -112 -106 -321l202 -31q2 49 6 81t14 67t27 55t45.5 33t69.5 13q137 0 137 -203q0 -12 -8.5 -21t-20.5 -9t-21 9t-9 21q0 41 -6 70t-13 43t-20 21.5t-20 8.5t-19 1q-63 0 -81 -41.5t-24 -184.5 q0 -13 -12 -22q-10 -6 -18 -6h-5l-257 41q-10 2 -18 10.5t-8 18.5zM274 138q0 12 8.5 21.5t20.5 9.5t21 -9t9 -21l3 -80h175l10 483q2 97 22 155.5t76 111.5q9 9 27 24.5t24 21.5q61 55 80 82q7 10 19 12t22 -4t12.5 -18.5t-3.5 -22.5q-9 -13 -22 -27.5t-21 -22t-26.5 -23.5 t-22.5 -20q-16 -13 -48 -43q-47 -46 -62.5 -93t-17.5 -134l-10 -512q0 -1 -0.5 -3t-0.5 -3t-1 -2.5t-1 -2.5q0 -4 -3 -7l-4 -3q-1 -1 -3 -1.5t-3 -1.5q-1 -3 -3 -3q-3 -2 -10 -2h-2h-231q-12 0 -20.5 8t-8.5 20z" />
<glyph unicode="@" horiz-adv-x="1597" vert-adv-y="0" d="M0 760q0 254 93 457q94 204 264 312q171 109 390 109q308 0 479 -195q168 -190 168 -534q0 -240 -87 -380q-92 -146 -254 -146q-77 0 -137 43q-10 6 -12 18.5t5 20.5q18 19 41 5q43 -31 103 -31q135 0 207 118q79 128 79 352q0 321 -156 500q-154 175 -436 175 q-204 0 -359 -101q-160 -104 -244 -289q-87 -192 -87 -434q0 -214 79 -378q79 -162 218 -244q142 -84 339 -84q184 0 338 74v116q-168 -70 -336 -70q-230 0 -361 160q-128 158 -128 436q0 195 66 356q67 162 187 250q121 90 283 90q215 0 333 -142q118 -143 118 -413 q0 -156 -31 -252q-35 -110 -107 -110q-55 0 -79 44q-21 35 -21 123v36l20 429q-122 35 -226 35q-152 0 -243 -118q-93 -120 -93 -328q0 -172 65 -254q61 -77 168 -77h1q56 0 81.5 66t25.5 213v1l5 128l11 200q-15 3 -33 3q-45 0 -78 -70q-38 -82 -38 -210q0 -61 28 -93 q7 -8 6 -19t-9 -19q-8 -7 -20 -6t-20 9q-42 50 -42 128q0 140 42 231q46 103 131 103q41 0 74 -13q16 -8 16 -26l-13 -221l-3 -126q0 -33 -0.5 -53t-3.5 -59.5t-9 -65.5t-18 -58.5t-29 -52t-43.5 -33t-60.5 -13.5h-1q-135 0 -213 100q-76 99 -76 287q0 225 103 359 q106 141 289 141q118 0 264 -43q8 -2 13.5 -10.5t5.5 -17.5l-21 -449l2 -34q0 -76 13 -97q9 -14 29 -14q31 0 53 70q27 85 27 236q0 254 -104 378q-104 123 -289 123q-138 0 -249 -80q-112 -81 -170 -226q-61 -146 -61 -336q0 -258 116 -401q114 -141 317 -141q174 0 352 83 q17 6 28 -1q13 -8 13 -23v-176q0 -14 -15 -23q-169 -88 -382 -88q-212 0 -367 92q-154 91 -240 267q-84 173 -84 401z" />
<glyph unicode="A" horiz-adv-x="1294" vert-adv-y="0" d="M0 36l143 596l235 983q2 10 11 16.5t19 6.5h316q10 0 18 -6.5t10 -16.5l238 -983l142 -596q0 -18 -5 -25q-8 -11 -23 -11h-298h-8q-2 0 -12 7l-6 9q0 1 -1.5 4.5t-1.5 4.5l-43 226l-16 90h-130q-12 0 -20.5 8.5t-8.5 20.5t8.5 21t20.5 9h151q11 2 21.5 -6t11.5 -19 l19 -113l38 -203h238l-135 560l-231 960h-270l-229 -961l-135 -559h239l82 451q13 74 50 109.5t122 35.5h4h3h92l-92 497l-64 -348q-2 -12 -12 -18t-22 -4t-19.5 11t-5.5 21l93 505q4 23 30 23q24 0 28 -23l128 -687v-3v-10q0 -1 -7 -11q-2 -2 -10 -8q-6 -4 -10 -4h-3h-126 l-3 2l-4 -2q-60 0 -82 -20t-32 -78l-87 -473q0 -1 -1 -4.5t-1 -4.5q-4 -7 -8 -9q-7 -7 -11 -7h-9h-300q-14 0 -22 11q-10 14 -7 25z" />
<glyph unicode="B" horiz-adv-x="1169" vert-adv-y="0" d="M0 29v1136q0 12 8.5 20.5t20.5 8.5t21 -8.5t9 -20.5v-1106h428q43 0 72 2t79 9t91 27t69 52q108 115 108 306q0 83 -17 148.5t-38.5 102t-55 65t-51.5 37t-44 18.5q-8 2 -14 10t-6 16q0 21 16 28q27 12 42.5 20.5t42.5 33.5t42 55.5t27.5 85t12.5 124.5q0 177 -86 282 q-23 29 -50.5 48t-51.5 29t-68.5 14.5t-75 5.5t-97.5 1h-375v-195h375q92 0 143 -60t51 -169q0 -26 -1.5 -45t-11.5 -53.5t-29 -57t-58 -40t-94 -17.5h-152q-30 0 -30 -29v-153q0 -12 9 -20.5t21 -8.5h149q77 0 118.5 -14t69.5 -65q35 -68 35 -146q0 -127 -50.5 -184.5 t-161.5 -57.5h-219q-12 0 -21 8t-9 20t9 20.5t21 8.5h219q81 0 117 38t36 147q0 64 -28 118q-18 32 -43.5 40.5t-92.5 8.5h-149q-37 0 -63 25t-26 62v153q0 41 26.5 64.5t62.5 23.5h152q45 0 73.5 12.5t41 37t16.5 47t4 57.5q0 172 -135 172h-405q-12 0 -20.5 9t-8.5 21v252 q0 12 8.5 20.5t20.5 8.5h405q61 0 87.5 -0.5t72 -3.5t69.5 -10.5t55.5 -20.5t56 -33.5t47.5 -50.5q100 -119 100 -320q0 -258 -145 -344q188 -102 188 -400q0 -211 -125 -347q-34 -38 -81 -62t-103 -33t-89 -11t-80 -2h-458q-12 0 -20.5 8.5t-8.5 20.5z" />
<glyph unicode="C" horiz-adv-x="1196" vert-adv-y="0" d="M8 809q0 524 203 731q119 123 307 123h3q53 0 101.5 -11t100.5 -37t95.5 -74t80.5 -116t61.5 -170t32.5 -230q0 -13 -8 -21.5t-20 -10.5l-323 -29q-8 0 -21 9q-12 9 -12 22v12q-1 42 -2 69.5t-4 69t-9 68t-14.5 53t-22 39.5t-31.5 13q-37 0 -58.5 -16.5t-39.5 -66.5 q-41 -119 -41 -445v-162v-9q0 -406 44 -484q56 -100 147 -100h2q55 0 102 21.5t80 54.5t60 80t43.5 93t29 98.5t18 91t8.5 76.5l-256 18v-25q-1 -41 -1.5 -60.5t-5.5 -59.5t-13.5 -64t-25.5 -51.5t-41 -44.5q-10 -7 -21.5 -4.5t-19.5 12.5q-7 11 -5 23t12 20q21 14 34 39.5 t18.5 64.5t7 60.5t2.5 66.5q0 42 2 59q3 27 31 27l316 -24q12 0 19 -9.5t7 -22.5q-2 -37 -7 -77.5t-17.5 -102t-30.5 -116t-49.5 -112.5t-71.5 -99t-98.5 -67.5t-128.5 -26.5h-1q-59 0 -111 34t-86 96q-52 93 -52 515v9v163q0 336 46 464q23 66 58.5 95.5t93.5 29.5h2 q30 0 53.5 -13.5t38 -41.5t24 -57t14.5 -75.5t6.5 -79.5t3.5 -86l263 22q-22 273 -126 412.5t-286 139.5q-164 0 -267 -106q-185 -189 -185 -687q0 -485 171 -667q8 -9 7 -21.5t-9 -21.5t-20.5 -8.5t-20.5 9.5q-187 197 -187 709z" />
<glyph unicode="D" horiz-adv-x="1179" vert-adv-y="0" d="M0 29q0 12 8.5 21t20.5 9h397q179 0 283 93q209 201 209 687q0 92 -9 177t-31 176t-66 168t-106 126q-75 60 -161 76.5t-232 16.5h-254v-1133q0 -70 23 -90t74 -20h170h2h88q114 0 143 83q36 108 36 390q0 104 -5.5 183.5t-12.5 131.5t-22 87.5t-27 53.5t-34.5 27 t-36 10.5t-40.5 1.5h-1h-60v-806q0 -12 -8 -20.5t-20 -8.5t-21 8.5t-9 20.5v836q0 12 9 21.5t21 9.5h88q67 0 108 -20.5t72.5 -79.5t44.5 -169t13 -287q0 -31 -1.5 -87t-11.5 -162t-27 -159q-44 -124 -198 -124h-88h-172q-31 0 -55.5 6t-49 22.5t-38 52t-13.5 88.5v1163 q0 12 8.5 20.5t20.5 8.5h284q154 0 249 -18.5t180 -85.5q114 -90 173.5 -267.5t59.5 -427.5q0 -512 -226 -729q-121 -110 -323 -110h-397q-12 0 -20.5 8.5t-8.5 20.5z" />
<glyph unicode="E" vert-adv-y="0" d="M0 29v522v1q0 73 51.5 125t125.5 54h3h482v205h-328q-12 0 -20.5 8.5t-8.5 20.5v367q0 12 8.5 21t20.5 9h436v217h-711v-753q0 -12 -9 -20t-21 -8t-20.5 8t-8.5 20v783q0 12 8.5 20.5t20.5 8.5h771q12 0 20.5 -8.5t8.5 -20.5v-277q0 -12 -8.5 -20.5t-20.5 -8.5h-436v-308 h326q12 0 20.5 -9t8.5 -21v-264q0 -12 -8.5 -20t-20.5 -8h-506q-52 0 -88.5 -36t-36.5 -86v-2v-490h711v218h-436q-12 0 -20.5 8.5t-8.5 20.5v204q0 12 8.5 20.5t20.5 8.5t21 -8.5t9 -20.5v-174h436q12 0 20.5 -9t8.5 -21v-277q0 -12 -8.5 -20.5t-20.5 -8.5h-771 q-12 0 -20.5 8.5t-8.5 20.5z" />
<glyph unicode="F" horiz-adv-x="989" vert-adv-y="0" d="M0 29v808q0 12 8.5 21t20.5 9t21 -9t9 -21v-778h247v642q0 12 9 21t21 9h331v205h-487q-75 0 -127.5 52.5t-52.5 127.5v493q0 12 8.5 20.5t20.5 8.5h726q12 0 21 -8.5t9 -20.5v-277q0 -12 -9 -20.5t-21 -8.5h-390v-146q0 -12 -8.5 -21t-20.5 -9t-21 9t-9 21v175 q0 12 9 21t21 9h390v217h-667v-463q0 -50 35.5 -85.5t85.5 -35.5h515q12 0 20.5 -9t8.5 -21v-264q0 -12 -8.5 -20t-20.5 -8h-330v-644q0 -12 -8.5 -20.5t-20.5 -8.5h-307q-12 0 -20.5 8.5t-8.5 20.5z" />
<glyph unicode="G" horiz-adv-x="1187" vert-adv-y="0" d="M0 809q0 524 203 731q119 123 308 123q53 0 101.5 -11t101 -37t96 -74t81 -116t62 -170.5t32.5 -229.5q0 -13 -8 -21.5t-20 -10.5l-323 -29q-8 0 -21 9q-12 9 -12 22v12q-1 42 -2 69.5t-4 69t-9 68.5t-14.5 53.5t-22 39.5t-31.5 13q-37 0 -59 -17t-40 -67 q-41 -119 -41 -445v-162v-9q0 -405 45 -484q48 -86 137 -98q18 -3 36 -3q57 0 118 27q81 35 135 89q77 78 77 101v441l-320 32v-96l64 -9q11 -1 18 -10t7 -20v-375q0 -13 -9 -21.5t-21 -8.5t-20.5 8.5t-8.5 21.5v349l-63 9q-11 1 -18.5 10t-7.5 20v155q0 17 10 24t23 7 l377 -39q12 -2 20 -10t8 -19v-469q0 -48 -95 -143q-56 -57 -136.5 -95.5t-160.5 -38.5q-16 0 -42 4q-121 19 -179 128q-53 95 -53 513v9v163q0 338 45 464q23 66 59.5 95.5t94.5 29.5h1q30 0 53.5 -13.5t38 -41.5t24 -57t14.5 -75.5t7 -80t4 -85.5l262 22 q-22 274 -125.5 413t-285.5 139q-164 0 -267 -106q-185 -189 -185 -687q0 -486 170 -667q19 -20 -1 -42q-8 -9 -20.5 -9t-20.5 9q-187 197 -187 709z" />
<glyph unicode="H" horiz-adv-x="1124" vert-adv-y="0" d="M0 29v1578q0 12 8.5 21t20.5 9h305q12 0 20 -9t8 -21v-739q0 -84 22 -110.5t99 -26.5h104q12 0 20.5 -9t8.5 -21v-642h244v1519h-244v-685q0 -12 -8.5 -20t-20.5 -8t-21 8t-9 20v714q0 12 9 21t21 9h303q12 0 21.5 -9t9.5 -21v-1578q0 -12 -9.5 -20.5t-21.5 -8.5h-303 q-12 0 -21 8.5t-9 20.5v643h-74q-107 0 -142.5 46t-35.5 150v710h-246v-1519l246 -2v490q0 12 8.5 21t20.5 9t20 -9t8 -21v-519q0 -13 -8 -21q-9 -9 -20 -9h-1l-304 2q-12 0 -20.5 8.5t-8.5 20.5z" />
<glyph unicode="I" horiz-adv-x="557" vert-adv-y="0" d="M0 29v1095q0 53 13.5 89t38 52t48 22t54.5 6h36q12 0 21 -9t9 -21t-9 -20.5t-21 -8.5h-36q-50 0 -72.5 -20t-22.5 -90v-1065h238v1520h-238v-149q0 -12 -9 -20.5t-21 -8.5t-20.5 8.5t-8.5 20.5v179q0 12 8.5 20.5t20.5 8.5h295q12 0 21 -8.5t9 -20.5v-1580 q0 -12 -9 -20.5t-21 -8.5h-295q-12 0 -20.5 8.5t-8.5 20.5z" />
<glyph unicode="J" horiz-adv-x="950" vert-adv-y="0" d="M0 72v279q0 14 10 21q8 6 23 6q9 0 26 -4q83 -21 163 -21q30 0 60 3q43 4 62.5 18.5t28.5 56.5t9 133v566q0 53 12.5 88t36.5 51.5t48.5 22.5t57.5 6h40q12 0 20 -9t8 -21t-8 -20.5t-20 -8.5h-40q-51 0 -73.5 -19.5t-22.5 -89.5v-566q0 -56 -3 -92t-11.5 -70.5t-25.5 -54 t-45 -33t-69 -17.5q-28 -3 -58 -3q-78 0 -170 19v-218q134 -36 298 -36q69 0 121.5 16.5t87 39t58 68t35.5 80.5t18 101t7 105t1 116v994h-244v-145q0 -12 -9 -22t-21 -10t-20.5 10t-8.5 22v175q0 12 8.5 20.5t20.5 8.5h305q12 0 20.5 -8.5t8.5 -20.5v-1024q0 -75 -1 -116 t-8.5 -112.5t-21.5 -113t-42 -94t-68.5 -80.5t-103.5 -48.5t-143 -20.5q-187 0 -336 44q-21 6 -21 28z" />
<glyph unicode="K" horiz-adv-x="1335" vert-adv-y="0" d="M0 29v1580q0 12 8.5 20.5t20.5 8.5h305q12 0 21 -8.5t9 -20.5v-710q0 -153 49 -249q29 -48 201.5 -317t175.5 -274h262q-20 33 -91.5 149.5t-135.5 221t-136 223t-122.5 204.5t-65.5 116q-16 33 -20 71q-2 22 -2 39q0 13 1 25q3 26 10 47q23 69 277 470q8 13 24 13h313 q16 0 25 -14q9 -15 0 -30l-359 -634q-6 -11 -18 -14t-23 3t-14 18t3 23l335 589h-245q-244 -385 -262 -442q-9 -18 -9 -62t17 -76q27 -54 174 -298t264 -434.5t137 -222.5q8 -13 0 -29q-7 -15 -25 -15h-329q-17 0 -25 13q-3 6 -89.5 140t-180 280.5t-118.5 187.5 q-57 108 -57 278v680h-246v-1520h246v316q0 12 8.5 20t20.5 8t21 -8t9 -20v-346q0 -12 -9 -20.5t-21 -8.5h-305q-12 0 -20.5 8.5t-8.5 20.5z" />
<glyph unicode="L" horiz-adv-x="933" vert-adv-y="0" d="M0 29q0 12 8.5 21t20.5 9h641v233h-514q-32 0 -55.5 6t-48.5 22t-38.5 51.5t-13.5 88.5v1149q0 12 8.5 20.5t20.5 8.5h300q12 0 21 -8.5t9 -20.5l1 -1098q0 -12 -8.5 -20.5t-20.5 -8.5t-21 8.5t-9 20.5l-1 1068h-241v-1119q0 -70 22.5 -89.5t74.5 -19.5h544q12 0 20.5 -9 t8.5 -21v-292q0 -12 -8.5 -20.5t-20.5 -8.5h-671q-12 0 -20.5 8.5t-8.5 20.5z" />
<glyph unicode="M" horiz-adv-x="1431" vert-adv-y="0" d="M0 29v1580q0 12 8.5 20.5t20.5 8.5h118q37 0 64.5 -6t48 -21t29 -24t27.5 -31q3 -4 18 -19l518 -638q48 -58 59 -113t11 -163l-1 -35l1 -529h246v1520h-85q-69 0 -83 -5t-35 -39q-10 -15 -52.5 -86.5t-80.5 -134.5t-39 -64q-6 -10 -17.5 -13t-21.5 3t-13 18t3 22 q3 4 40.5 66t80.5 134.5t51 85.5q32 51 61 61.5t108 10.5h113q12 0 20.5 -8.5t8.5 -20.5v-1580q0 -12 -8.5 -20.5t-20.5 -8.5h-305q-12 0 -21 8.5t-9 20.5v559v35q0 74 -1.5 102.5t-14.5 66t-41 70.5l-516 635q-4 4 -9.5 12t-8.5 11q-18 22 -29 32t-35 18.5t-61 8.5h-88 v-1520h233v988v2q0 9 1 11q3 5 8 8q7 7 12 7q1 0 4 0.5t4 0.5q7 0 12 -3l9 -6v-2l264 -324q8 -10 6.5 -22t-11.5 -19q-10 -8 -22 -7.5t-19 10.5l-211 262v-936q0 -12 -9 -20.5t-21 -8.5h-290q-12 0 -20.5 8.5t-8.5 20.5z" />
<glyph unicode="N" horiz-adv-x="1335" vert-adv-y="0" d="M0 29v1580q0 12 8.5 20.5t20.5 8.5h233q75 0 118.5 -29.5t78.5 -91.5l616 -1116v1178h-256v-344q0 -12 -8.5 -20.5t-20.5 -8.5t-21 8.5t-9 20.5v374q0 12 9 20.5t21 8.5h314q12 0 20 -8.5t8 -20.5v-1321v-5q0 -7 -3 -11q-3 -5 -8 -8q-7 -5 -10 -5h-10q-7 0 -11 3 q-8 6 -10 8l-2 4l-670 1215q-28 50 -58 70t-88 20h-203v-1520h246v978v5q0 6 3 11q4 7 8 9q7 5 10 5h12q5 0 11 -4q5 -3 8 -8l3 -3l454 -868l33 -51q26 -40 57.5 -57t96.5 -17h103q12 0 20 -9t8 -21t-8 -20.5t-20 -8.5h-103q-73 0 -121 24t-84 78l-33 50v2l-399 765v-890 q0 -12 -9 -20.5t-21 -8.5h-305q-13 0 -21 8t-8 21z" />
<glyph unicode="O" horiz-adv-x="1191" vert-adv-y="0" d="M0 831q0 420 123 626t373 206q91 0 165 -29t124.5 -76t88 -118t59 -143t34.5 -163t17 -167t4 -165q0 -158 -21.5 -299.5t-65.5 -263t-122 -193t-181 -71.5h-3q-57 1 -102 18.5t-70 40t-43.5 58t-24.5 55.5t-13 49l-1 12q-19 79 -19 364q0 62 1 134v91q0 368 33 461 q43 121 134 121q56 0 89.5 -28.5t54.5 -94.5q30 -97 30 -427q0 -315 -17 -415q-20 -120 -83 -152q-11 -5 -23 -1t-17 15t-1.5 23t14.5 17q37 20 51 108q18 118 18 405q0 318 -28 409q-15 49 -34 65t-54 16q-23 0 -42.5 -16t-36.5 -64q-29 -85 -29 -442q0 -11 -1 -41.5 t-1 -49.5q-1 -69 -1 -129q0 -276 19 -355l3 -12q7 -29 11.5 -45.5t19.5 -44.5t33.5 -43.5t53 -28t79.5 -12.5h3q70 1 126.5 47t93 121.5t61 176.5t35 205.5t10.5 215.5q0 409 -105 604.5t-326 195.5q-224 0 -330.5 -188t-106.5 -583q0 -427 120 -640q1 -2 6 -9.5t11.5 -17.5 t14.5 -20q7 -9 6 -21.5t-9 -20.5t-21 -7t-20 10q-17 20 -38 54q-129 226 -129 672z" />
<glyph unicode="P" horiz-adv-x="1105" vert-adv-y="0" d="M0 29v743q0 77 35 112t112 35h253q34 0 53.5 5.5t38.5 25.5t27.5 64.5t8.5 117.5q0 106 -29.5 152t-98.5 46h-44v-249q0 -12 -8 -20.5t-20 -8.5t-21 8.5t-9 20.5v279q0 12 9 20.5t21 8.5h72q187 0 187 -257q0 -150 -42.5 -211t-144.5 -61h-253q-53 0 -70.5 -18t-17.5 -70 v-713h239v554q0 12 9 20.5t21 8.5h88q55 0 90 2t94.5 18.5t100.5 48.5q65 53 104 160t39 237q0 202 -87 335q-21 33 -45.5 57t-56 38.5t-56.5 23.5t-65 12.5t-64 4t-70 0.5h-341v-535q0 -12 -9 -21t-21 -9t-20.5 9t-8.5 21v565q0 12 8.5 20.5t20.5 8.5h371q48 0 73.5 -1 t70.5 -5t75 -14.5t66 -27.5t66 -46t55 -68q97 -147 97 -368q0 -144 -43.5 -262t-120.5 -181q-37 -29 -82 -47.5t-93.5 -25t-77.5 -8.5t-70 -2h-60v-553q0 -12 -8 -20.5t-20 -8.5h-299q-12 0 -20.5 8.5t-8.5 20.5z" />
<glyph unicode="Q" horiz-adv-x="1187" vert-adv-y="0" d="M0 806q0 89 4 164.5t16.5 166t33.5 162t58.5 142t87.5 117.5t123.5 76t164.5 29q251 0 374 -205t123 -624q0 -428 -123 -656q0 -1 -1 -1.5t-1 -1.5l118 -151q12 -14 3 -32q-9 -17 -26 -17h-255q-12 0 -21 9t-9 22t9 21.5t21 8.5h193l-92 117q-13 19 2 38q0 1 0.5 2.5 t0.5 2.5q120 210 120 638q0 394 -106 581t-330 187q-220 0 -324.5 -194.5t-104.5 -601.5q0 -110 10.5 -214.5t35 -205t61 -175.5t93 -121t126.5 -47h2q38 0 67.5 7t49.5 22.5t33.5 29.5t23 38.5t13 37.5t9.5 37l4 12q19 79 19 354q0 60 -1 129q0 19 -1 49.5t-1 41.5 q0 352 -30 440q-17 48 -35.5 63t-42.5 15q-35 0 -53.5 -15.5t-33.5 -64.5q-28 -91 -28 -406q0 -286 18 -404q14 -89 49 -108q11 -5 15.5 -17t-0.5 -23t-16.5 -15t-22.5 1q-62 32 -82 152q-20 118 -20 414q0 323 31 423q21 66 54.5 95.5t88.5 29.5q91 0 134 -121 q33 -93 33 -459v-91q1 -72 1 -134q0 -285 -19 -363l-2 -11q-5 -21 -8 -33.5t-13 -38.5t-21 -43t-31 -39t-43.5 -35t-58.5 -23t-77 -10h-3q-83 0 -149.5 48t-110 127.5t-73 188t-42 223.5t-12.5 239z" />
<glyph unicode="R" horiz-adv-x="1142" vert-adv-y="0" d="M0 29v743q0 77 35 112t112 35h253q34 0 53.5 5.5t38.5 25.5t27.5 64.5t8.5 117.5q0 106 -29.5 152t-98.5 46h-44v-249q0 -12 -8 -20.5t-20 -8.5t-21 8.5t-9 20.5v279q0 12 9 20.5t21 8.5h72q187 0 187 -257q0 -150 -42.5 -211t-144.5 -61h-253q-53 0 -70.5 -18t-17.5 -70 v-713h239v554q0 12 9 20.5t21 8.5h105q9 0 19 -10q8 -8 8 -14l151 -559h257l-198 603q-2 3 -2 13q0 11 14 21q4 2 10.5 7.5t8.5 7.5q65 53 104 160t39 237q0 202 -87 335q-21 33 -45.5 57t-56 38.5t-56.5 23.5t-65 12.5t-64 4t-70 0.5h-341v-537q0 -12 -9 -20.5t-21 -8.5 t-20.5 8.5t-8.5 20.5v567q0 12 8.5 20.5t20.5 8.5h371q47 0 73 -1t70.5 -5t75 -14.5t66.5 -28t66 -46.5t55 -68q97 -147 97 -367q0 -144 -43.5 -262t-120.5 -181q-1 -1 -3.5 -2.5t-3.5 -2.5l205 -622q4 -12 -5 -27q-7 -11 -23 -11h-321q-23 0 -28 21l-150 561h-54v-553 q0 -12 -8 -20.5t-20 -8.5h-299q-12 0 -20.5 8.5t-8.5 20.5z" />
<glyph unicode="S" horiz-adv-x="1138" vert-adv-y="0" d="M0 426q-5 25 18 34l246 99q9 3 24 -2q11 -4 15 -20q9 -41 17 -66.5t21.5 -55t33.5 -47.5t48 -26q21 -6 40 -6q37 0 66 23q49 37 49 108q0 58 -27.5 91t-75.5 56q-11 5 -14.5 17t1.5 23t16.5 14.5t22.5 -1.5q60 -29 98 -74.5t38 -125.5q0 -102 -73 -156q-45 -35 -100 -35 q-28 0 -58 9q-36 10 -64 32.5t-45 54t-27 58t-18 60.5l-186 -75q10 -38 19 -65t26.5 -67t36.5 -68t50 -59.5t67 -51t87 -32.5t110 -13q125 0 218 43q91 44 145 142q50 91 50 197v16q-4 103 -54.5 180.5t-135.5 112.5q-66 27 -195 56q-44 10 -65 15t-62 16t-63.5 20t-57 24.5 t-54.5 31.5t-45.5 39.5t-41 50t-29.5 61.5t-21 75q-8 44 -8 85q0 142 93 255q63 75 154.5 117t192.5 42q160 0 270.5 -94.5t160.5 -273.5q5 -23 -16 -35l-230 -108q-12 -5 -24 0t-16 20q-28 122 -94 149q-19 8 -38 8t-38 -8q-37 -16 -57 -56q-14 -29 -13 -57q0 -17 4 -35 q14 -46 59 -78q10 -8 12.5 -19.5t-4.5 -21.5q-8 -10 -20.5 -12t-22.5 5q-64 44 -82 112q-7 25 -7 49q0 42 20 83q29 61 89 85q30 12 60 12q31 0 61 -13q83 -34 118 -154l175 82q-18 59 -45 108t-70 95t-107.5 72t-144.5 26q-88 0 -167.5 -36t-133.5 -101q-79 -97 -79 -217 q0 -36 7 -75q7 -38 19.5 -69.5t33 -56.5t40 -44.5t51 -35.5t54.5 -26.5t63 -21.5t64 -17t68 -16q139 -30 205 -57q102 -41 162 -132.5t64 -214.5v-19q0 -122 -58 -227q-63 -113 -170 -165q-100 -48 -244 -48q-56 0 -105.5 10t-87.5 25.5t-71.5 41.5t-57 49.5t-45 58.5 t-34 60t-25.5 62.5t-19 58t-15 53.5z" />
<glyph unicode="T" horiz-adv-x="1042" vert-adv-y="0" d="M0 1317v292q0 12 8.5 20.5t20.5 8.5h780q12 0 21 -8.5t9 -20.5v-298q0 -12 -9 -21t-21 -9h-77q-12 0 -20.5 9t-8.5 21t8.5 20.5t20.5 8.5h48v239h-721v-232h382q31 0 55 -6t48.5 -22.5t37.5 -52t13 -88.5v-1149q0 -12 -9 -20.5t-21 -8.5h-298q-12 0 -20.5 8.5t-8.5 20.5 v1093q0 12 8.5 21t20.5 9t21 -9t9 -21v-1063h239v1119q0 70 -22.5 90t-72.5 20h-412q-12 0 -20.5 8.5t-8.5 20.5z" />
<glyph unicode="U" horiz-adv-x="1089" vert-adv-y="0" d="M0 582v1027q0 12 8.5 20.5t20.5 8.5h295q12 0 21 -8.5t9 -20.5v-1273q0 -136 59 -207.5t141 -71.5q69 0 117 21.5t78 60t46.5 106t22.5 145t6 192.5v999h-234v-990q0 -111 -11 -176.5t-47 -101.5q-8 -8 -21 -9t-21 7t-8 20.5t8 20.5q26 26 33.5 84t7.5 155v1018 q0 12 8.5 20.5t20.5 8.5h294q12 0 21.5 -8.5t9.5 -20.5v-1027q0 -67 -2 -117t-7 -107.5t-15.5 -99.5t-26.5 -85.5t-41 -72.5t-58.5 -53t-79 -35.5t-101.5 -11.5h-2q-48 0 -93 20.5t-82 60t-59.5 106t-22.5 149.5v1245h-236v-999q0 -206 41.5 -321t132.5 -163q11 -5 13 -16 t-4 -21q-16 -25 -39 -13q-107 56 -155 182.5t-48 351.5z" />
<glyph unicode="V" horiz-adv-x="1312" vert-adv-y="0" d="M0 1602q-3 11 7 25q8 11 22 11h310q23 0 28 -21q1 -4 68 -257t142.5 -535.5t87.5 -329.5q11 -44 43 -44q34 0 46 42q99 372 288 1086h-224l-150 -573q-2 -12 -13 -17.5t-23 -3.5t-17.5 13t-3.5 23l154 594q2 10 11 16.5t19 6.5h286q15 0 23 -11q8 -12 5 -25 q-2 -8 -141.5 -534.5t-156.5 -589.5q-11 -39 -39 -62.5t-64 -23.5q-33 0 -61 21t-39 67q-12 48 -75 284.5t-134.5 504.5t-82.5 310h-249l359 -1520h242q12 0 21 -9t9 -21t-9 -20.5t-21 -8.5h-265q-1 0 -5 1t-5 1h-1q-2 0 -7 5h-2l-6 6v2q-3 3 -3 8z" />
<glyph unicode="W" horiz-adv-x="1818" vert-adv-y="0" d="M0 1602q-3 11 7 25q8 11 22 11h294q24 0 28 -24l159 -837l139 837q3 24 28 24q11 1 19 -6.5t10 -17.5l272 -1363q13 -61 32 -102t40.5 -59t38.5 -24.5t38 -6.5h67h40l314 1520h-231l-180 -976q-2 -10 -9.5 -17.5t-18.5 -7.5t-19.5 7t-9.5 18l-161 1001q-2 12 5.5 22.5 t19.5 11.5q12 2 21.5 -5t10.5 -19l135 -832l152 832q2 10 10.5 17t19.5 7h293q13 0 21 -11q9 -13 7 -23l-328 -1581q-2 -10 -10 -16.5t-18 -6.5h-64h-67h-6h-5q-144 7 -195 238v1l-241 1206l-139 -842q-1 -11 -10 -18t-20 -7t-19 7.5t-10 17.5l-184 976h-232l319 -1520h39h2 h3h69q44 0 80.5 39t62.5 153l39 241q1 12 11 19t22 5q12 -1 19 -11.5t5 -22.5l-39 -243v-1q-27 -122 -75.5 -180t-124.5 -58h-69h-3h-2h-62q-10 0 -18.5 6.5t-10.5 16.5z" />
<glyph unicode="X" horiz-adv-x="1433" vert-adv-y="0" d="M3 13q-9 15 0 30l326 652q5 11 17 15t23 -1t14.5 -17.5t-1.5 -23.5l-305 -609h247l204 393q24 46 28 80l2 22q0 22 -6 44q-10 32 -38 88q-21 41 -140 272.5t-222 433t-104 204.5q-8 13 1 28q9 14 25 14h298q18 0 26 -16l216 -428l217 428q8 16 26 16h298q16 0 25 -14 q9 -15 1 -28l-385 -747l430 -806q9 -14 0 -28q-9 -15 -27 -15h-313q-18 0 -26 16l-183 358q-13 28 11 39q11 5 23.5 1.5t17.5 -14.5l175 -341h246l-413 777q-8 13 0 26l371 717h-233l-233 -462q-4 -6 -6 -8q-8 -8 -21.5 -8t-21.5 8q-5 5 -5 8l-236 462h-229 q348 -669 446 -866q31 -63 42 -104q7 -26 7 -52q0 -16 -2 -32q-6 -43 -36 -99l-211 -410q-8 -16 -27 -16h-313q-18 0 -26 13z" />
<glyph unicode="Y" horiz-adv-x="1157" vert-adv-y="0" d="M2 1601q-5 13 3 26q7 11 24 11h290q23 0 28 -19q181 -524 230 -667q12 -34 46 -34q43 0 54 32q13 38 98 298.5t108 330.5h-226l-67 -268q-2 -12 -13 -18t-23 -4t-18 13t-4 23l73 290q2 10 10.5 16.5t18.5 6.5h290q18 0 25 -11q8 -13 3 -26q-1 -2 -48.5 -146.5 t-102.5 -312.5t-69 -211q-11 -32 -41.5 -53t-67.5 -21q-36 0 -63 20t-39 55q-140 409 -223 647h-229l283 -861q0 -2 1 -5t1 -5v-649h246v634q0 12 8.5 20t20.5 8t21 -8t9 -20v-664q0 -12 -9 -20.5t-21 -8.5h-305q-12 0 -20.5 8.5t-8.5 20.5v674z" />
<glyph unicode="Z" horiz-adv-x="1171" vert-adv-y="0" d="M0 29v136q0 58 13 112t24.5 79.5t31.5 61.5l1 6q28 50 226.5 413t260.5 480h-528q-12 0 -20.5 9t-8.5 21v262q0 12 8.5 20.5t20.5 8.5h910q12 0 20.5 -8.5t8.5 -20.5v-131q0 -82 -13 -129t-54 -127l-609 -1163h617v218h-321q-12 0 -20.5 8.5t-8.5 20.5t8.5 21t20.5 9h351 q12 0 20.5 -9t8.5 -21v-277q0 -12 -8.5 -20.5t-20.5 -8.5h-697q-15 0 -24 15q-9 14 0 28l631 1205q37 72 48.5 113.5t11.5 116.5v101h-850v-204h547q17 0 25 -13q9 -15 0 -30q-482 -886 -508 -934l-3 -8q-18 -33 -28.5 -56.5t-21.5 -70.5t-11 -98v-136q0 -12 -9 -20.5 t-21 -8.5t-20.5 8.5t-8.5 20.5z" />
<glyph unicode="[" horiz-adv-x="886" vert-adv-y="0" d="M0 29v915v237v2q0 72 51.5 123.5t125.5 53.5h3h76h1h38h329v219h-180h-3h-294h-88v-88q0 -12 -9 -21t-21 -9t-20.5 9t-8.5 21v118q0 12 8.5 20.5t20.5 8.5h30h88h110h184h213q12 0 20.5 -8.5t8.5 -20.5v-279q0 -12 -8.5 -20.5t-20.5 -8.5h-393h-5h-66q-52 0 -91.5 -35 t-39.5 -85v-3v-233v-1v-885h382h3h180v220h-359q-12 0 -20.5 8.5t-8.5 20.5v236v208v378q0 12 8.5 21t20.5 9t21 -9t9 -21v-378v-208v-206h359q12 0 20.5 -9t8.5 -21v-279q0 -12 -8.5 -20.5t-20.5 -8.5h-213h-184h-228q-12 0 -20.5 8.5t-8.5 20.5z" />
<glyph unicode="\" horiz-adv-x="1024" vert-adv-y="0" d="M7 1606q-3 8 3 23q6 9 19 9h145q18 0 23 -14l622 -1591q0 -1 1 -2.5t1 -2.5v-8q0 -7 -3 -10l-7 -7q-3 -3 -8 -3h-5h-146q-15 0 -21 15l-284 719q-4 8 0.5 17.5t12.5 13.5t18 -0.5t14 -12.5l278 -704h93l-606 1543h-93l272 -692q4 -8 -1 -17.5t-14 -13.5q-8 -4 -16.5 0 t-12.5 13z" />
<glyph unicode="]" horiz-adv-x="888" vert-adv-y="0" d="M2 29v279q0 12 8.5 21t20.5 9h393h5h66q53 0 92 34.5t39 84.5v3v233v2v884h-382h-5h-178v-219h358q12 0 21 -9t9 -21v-236v-208v-378q0 -12 -9 -21t-21 -9t-20.5 9t-8.5 21v378v208v207h-359q-12 0 -20.5 8.5t-8.5 20.5v279q0 12 8.5 20.5t20.5 8.5h213h184h227 q12 0 21 -8.5t9 -20.5v-914v-238v-2q0 -72 -51.5 -123t-125.5 -53h-2h-77h-1h-38h-329v-220h178h5h293h89v88q0 12 8.5 21t20.5 9t21 -9t9 -21v-118q0 -12 -9 -20.5t-21 -8.5h-29h-89h-109h-184h-213q-12 0 -20.5 8.5t-8.5 20.5z" />
<glyph unicode="^" horiz-adv-x="987" vert-adv-y="0" d="M3 1073q0 5 2 8q2 5 51.5 121t100 233.5t58.5 134.5q24 49 68 49q49 0 73 -49q22 -44 203 -476h172l-226 503q-4 8 -1.5 17t9.5 13t16 1t13 -11l240 -536q4 -11 0 -21t-19 -10h-217q-13 0 -18 13q-1 1 -48 111.5t-99 231t-63 142.5q-12 28 -33 28q-22 0 -33 -26 q-52 -114 -196 -456h155l71 179q2 8 10.5 12t15.5 0q16 -8 11 -28l-75 -194q-5 -13 -18 -13h-201q-14 0 -18 10q-4 6 -4 13z" />
<glyph unicode="_" horiz-adv-x="1589" vert-adv-y="0" d="M0 31v252q0 13 9.5 22.5t23.5 9.5q13 0 22 -9t9 -23v-219h942q13 0 22 -9.5t9 -23.5q0 -13 -8.5 -22t-22.5 -9h-973q-14 0 -23.5 9t-9.5 22zM244 283q0 14 9 23t22 9h975q14 0 23.5 -9.5t9.5 -22.5v-252q0 -13 -9.5 -22t-23.5 -9t-22.5 9t-8.5 22v220h-944q-13 0 -22 9 t-9 23z" />
<glyph unicode="`" horiz-adv-x="432" vert-adv-y="0" d="M3 1912q-5 11 0 22t17 16l277 111q26 9 37 -16l69 -174q5 -11 0.5 -22t-16.5 -16q-11 -4 -22.5 1t-15.5 16l-57 146l-223 -89l47 -120l112 46q25 8 37 -18q5 -11 0 -22t-16 -15l-138 -54q-27 -9 -39 16z" />
<glyph unicode="a" horiz-adv-x="1294" vert-adv-y="0" d="M0 36l143 596l235 983q2 10 11 16.5t19 6.5h316q10 0 18 -6.5t10 -16.5l238 -983l142 -596q0 -18 -5 -25q-8 -11 -23 -11h-298h-8q-2 0 -12 7l-6 9q0 1 -1.5 4.5t-1.5 4.5l-43 226l-16 90h-130q-12 0 -20.5 8.5t-8.5 20.5t8.5 21t20.5 9h151q11 2 21.5 -6t11.5 -19 l19 -113l38 -203h238l-135 560l-231 960h-270l-229 -961l-135 -559h239l82 451q13 74 50 109.5t122 35.5h4h3h92l-92 497l-64 -348q-2 -12 -12 -18t-22 -4t-19.5 11t-5.5 21l93 505q4 23 30 23q24 0 28 -23l128 -687v-3v-10q0 -1 -7 -11q-2 -2 -10 -8q-6 -4 -10 -4h-3h-126 l-3 2l-4 -2q-60 0 -82 -20t-32 -78l-87 -473q0 -1 -1 -4.5t-1 -4.5q-4 -7 -8 -9q-7 -7 -11 -7h-9h-300q-14 0 -22 11q-10 14 -7 25z" />
<glyph unicode="b" horiz-adv-x="1169" vert-adv-y="0" d="M0 29v1136q0 12 8.5 20.5t20.5 8.5t21 -8.5t9 -20.5v-1106h428q43 0 72 2t79 9t91 27t69 52q108 115 108 306q0 83 -17 148.5t-38.5 102t-55 65t-51.5 37t-44 18.5q-8 2 -14 10t-6 16q0 21 16 28q27 12 42.5 20.5t42.5 33.5t42 55.5t27.5 85t12.5 124.5q0 177 -86 282 q-23 29 -50.5 48t-51.5 29t-68.5 14.5t-75 5.5t-97.5 1h-375v-195h375q92 0 143 -60t51 -169q0 -26 -1.5 -45t-11.5 -53.5t-29 -57t-58 -40t-94 -17.5h-152q-30 0 -30 -29v-153q0 -12 9 -20.5t21 -8.5h149q77 0 118.5 -14t69.5 -65q35 -68 35 -146q0 -127 -50.5 -184.5 t-161.5 -57.5h-219q-12 0 -21 8t-9 20t9 20.5t21 8.5h219q81 0 117 38t36 147q0 64 -28 118q-18 32 -43.5 40.5t-92.5 8.5h-149q-37 0 -63 25t-26 62v153q0 41 26.5 64.5t62.5 23.5h152q45 0 73.5 12.5t41 37t16.5 47t4 57.5q0 172 -135 172h-405q-12 0 -20.5 9t-8.5 21v252 q0 12 8.5 20.5t20.5 8.5h405q61 0 87.5 -0.5t72 -3.5t69.5 -10.5t55.5 -20.5t56 -33.5t47.5 -50.5q100 -119 100 -320q0 -258 -145 -344q188 -102 188 -400q0 -211 -125 -347q-34 -38 -81 -62t-103 -33t-89 -11t-80 -2h-458q-12 0 -20.5 8.5t-8.5 20.5z" />
<glyph unicode="c" horiz-adv-x="1196" vert-adv-y="0" d="M8 809q0 524 203 731q119 123 307 123h3q53 0 101.5 -11t100.5 -37t95.5 -74t80.5 -116t61.5 -170t32.5 -230q0 -13 -8 -21.5t-20 -10.5l-323 -29q-8 0 -21 9q-12 9 -12 22v12q-1 42 -2 69.5t-4 69t-9 68t-14.5 53t-22 39.5t-31.5 13q-37 0 -58.5 -16.5t-39.5 -66.5 q-41 -119 -41 -445v-162v-9q0 -406 44 -484q56 -100 147 -100h2q55 0 102 21.5t80 54.5t60 80t43.5 93t29 98.5t18 91t8.5 76.5l-256 18v-25q-1 -41 -1.5 -60.5t-5.5 -59.5t-13.5 -64t-25.5 -51.5t-41 -44.5q-10 -7 -21.5 -4.5t-19.5 12.5q-7 11 -5 23t12 20q21 14 34 39.5 t18.5 64.5t7 60.5t2.5 66.5q0 42 2 59q3 27 31 27l316 -24q12 0 19 -9.5t7 -22.5q-2 -37 -7 -77.5t-17.5 -102t-30.5 -116t-49.5 -112.5t-71.5 -99t-98.5 -67.5t-128.5 -26.5h-1q-59 0 -111 34t-86 96q-52 93 -52 515v9v163q0 336 46 464q23 66 58.5 95.5t93.5 29.5h2 q30 0 53.5 -13.5t38 -41.5t24 -57t14.5 -75.5t6.5 -79.5t3.5 -86l263 22q-22 273 -126 412.5t-286 139.5q-164 0 -267 -106q-185 -189 -185 -687q0 -485 171 -667q8 -9 7 -21.5t-9 -21.5t-20.5 -8.5t-20.5 9.5q-187 197 -187 709z" />
<glyph unicode="d" horiz-adv-x="1179" vert-adv-y="0" d="M0 29q0 12 8.5 21t20.5 9h397q179 0 283 93q209 201 209 687q0 92 -9 177t-31 176t-66 168t-106 126q-75 60 -161 76.5t-232 16.5h-254v-1133q0 -70 23 -90t74 -20h170h2h88q114 0 143 83q36 108 36 390q0 104 -5.5 183.5t-12.5 131.5t-22 87.5t-27 53.5t-34.5 27 t-36 10.5t-40.5 1.5h-1h-60v-806q0 -12 -8 -20.5t-20 -8.5t-21 8.5t-9 20.5v836q0 12 9 21.5t21 9.5h88q67 0 108 -20.5t72.5 -79.5t44.5 -169t13 -287q0 -31 -1.5 -87t-11.5 -162t-27 -159q-44 -124 -198 -124h-88h-172q-31 0 -55.5 6t-49 22.5t-38 52t-13.5 88.5v1163 q0 12 8.5 20.5t20.5 8.5h284q154 0 249 -18.5t180 -85.5q114 -90 173.5 -267.5t59.5 -427.5q0 -512 -226 -729q-121 -110 -323 -110h-397q-12 0 -20.5 8.5t-8.5 20.5z" />
<glyph unicode="e" vert-adv-y="0" d="M0 29v522v1q0 73 51.5 125t125.5 54h3h482v205h-328q-12 0 -20.5 8.5t-8.5 20.5v367q0 12 8.5 21t20.5 9h436v217h-711v-753q0 -12 -9 -20t-21 -8t-20.5 8t-8.5 20v783q0 12 8.5 20.5t20.5 8.5h771q12 0 20.5 -8.5t8.5 -20.5v-277q0 -12 -8.5 -20.5t-20.5 -8.5h-436v-308 h326q12 0 20.5 -9t8.5 -21v-264q0 -12 -8.5 -20t-20.5 -8h-506q-52 0 -88.5 -36t-36.5 -86v-2v-490h711v218h-436q-12 0 -20.5 8.5t-8.5 20.5v204q0 12 8.5 20.5t20.5 8.5t21 -8.5t9 -20.5v-174h436q12 0 20.5 -9t8.5 -21v-277q0 -12 -8.5 -20.5t-20.5 -8.5h-771 q-12 0 -20.5 8.5t-8.5 20.5z" />
<glyph unicode="f" horiz-adv-x="989" vert-adv-y="0" d="M0 29v808q0 12 8.5 21t20.5 9t21 -9t9 -21v-778h247v642q0 12 9 21t21 9h331v205h-487q-75 0 -127.5 52.5t-52.5 127.5v493q0 12 8.5 20.5t20.5 8.5h726q12 0 21 -8.5t9 -20.5v-277q0 -12 -9 -20.5t-21 -8.5h-390v-146q0 -12 -8.5 -21t-20.5 -9t-21 9t-9 21v175 q0 12 9 21t21 9h390v217h-667v-463q0 -50 35.5 -85.5t85.5 -35.5h515q12 0 20.5 -9t8.5 -21v-264q0 -12 -8.5 -20t-20.5 -8h-330v-644q0 -12 -8.5 -20.5t-20.5 -8.5h-307q-12 0 -20.5 8.5t-8.5 20.5z" />
<glyph unicode="g" horiz-adv-x="1187" vert-adv-y="0" d="M0 809q0 524 203 731q119 123 308 123q53 0 101.5 -11t101 -37t96 -74t81 -116t62 -170.5t32.5 -229.5q0 -13 -8 -21.5t-20 -10.5l-323 -29q-8 0 -21 9q-12 9 -12 22v12q-1 42 -2 69.5t-4 69t-9 68.5t-14.5 53.5t-22 39.5t-31.5 13q-37 0 -59 -17t-40 -67 q-41 -119 -41 -445v-162v-9q0 -405 45 -484q48 -86 137 -98q18 -3 36 -3q57 0 118 27q81 35 135 89q77 78 77 101v441l-320 32v-96l64 -9q11 -1 18 -10t7 -20v-375q0 -13 -9 -21.5t-21 -8.5t-20.5 8.5t-8.5 21.5v349l-63 9q-11 1 -18.5 10t-7.5 20v155q0 17 10 24t23 7 l377 -39q12 -2 20 -10t8 -19v-469q0 -48 -95 -143q-56 -57 -136.5 -95.5t-160.5 -38.5q-16 0 -42 4q-121 19 -179 128q-53 95 -53 513v9v163q0 338 45 464q23 66 59.5 95.5t94.5 29.5h1q30 0 53.5 -13.5t38 -41.5t24 -57t14.5 -75.5t7 -80t4 -85.5l262 22 q-22 274 -125.5 413t-285.5 139q-164 0 -267 -106q-185 -189 -185 -687q0 -486 170 -667q19 -20 -1 -42q-8 -9 -20.5 -9t-20.5 9q-187 197 -187 709z" />
<glyph unicode="h" horiz-adv-x="1124" vert-adv-y="0" d="M0 29v1578q0 12 8.5 21t20.5 9h305q12 0 20 -9t8 -21v-739q0 -84 22 -110.5t99 -26.5h104q12 0 20.5 -9t8.5 -21v-642h244v1519h-244v-685q0 -12 -8.5 -20t-20.5 -8t-21 8t-9 20v714q0 12 9 21t21 9h303q12 0 21.5 -9t9.5 -21v-1578q0 -12 -9.5 -20.5t-21.5 -8.5h-303 q-12 0 -21 8.5t-9 20.5v643h-74q-107 0 -142.5 46t-35.5 150v710h-246v-1519l246 -2v490q0 12 8.5 21t20.5 9t20 -9t8 -21v-519q0 -13 -8 -21q-9 -9 -20 -9h-1l-304 2q-12 0 -20.5 8.5t-8.5 20.5z" />
<glyph unicode="i" horiz-adv-x="557" vert-adv-y="0" d="M0 29v1095q0 53 13.5 89t38 52t48 22t54.5 6h36q12 0 21 -9t9 -21t-9 -20.5t-21 -8.5h-36q-50 0 -72.5 -20t-22.5 -90v-1065h238v1520h-238v-149q0 -12 -9 -20.5t-21 -8.5t-20.5 8.5t-8.5 20.5v179q0 12 8.5 20.5t20.5 8.5h295q12 0 21 -8.5t9 -20.5v-1580 q0 -12 -9 -20.5t-21 -8.5h-295q-12 0 -20.5 8.5t-8.5 20.5z" />
<glyph unicode="j" horiz-adv-x="950" vert-adv-y="0" d="M0 72v279q0 14 10 21q8 6 23 6q9 0 26 -4q83 -21 163 -21q30 0 60 3q43 4 62.5 18.5t28.5 56.5t9 133v566q0 53 12.5 88t36.5 51.5t48.5 22.5t57.5 6h40q12 0 20 -9t8 -21t-8 -20.5t-20 -8.5h-40q-51 0 -73.5 -19.5t-22.5 -89.5v-566q0 -56 -3 -92t-11.5 -70.5t-25.5 -54 t-45 -33t-69 -17.5q-28 -3 -58 -3q-78 0 -170 19v-218q134 -36 298 -36q69 0 121.5 16.5t87 39t58 68t35.5 80.5t18 101t7 105t1 116v994h-244v-145q0 -12 -9 -22t-21 -10t-20.5 10t-8.5 22v175q0 12 8.5 20.5t20.5 8.5h305q12 0 20.5 -8.5t8.5 -20.5v-1024q0 -75 -1 -116 t-8.5 -112.5t-21.5 -113t-42 -94t-68.5 -80.5t-103.5 -48.5t-143 -20.5q-187 0 -336 44q-21 6 -21 28z" />
<glyph unicode="k" horiz-adv-x="1335" vert-adv-y="0" d="M0 29v1580q0 12 8.5 20.5t20.5 8.5h305q12 0 21 -8.5t9 -20.5v-710q0 -153 49 -249q29 -48 201.5 -317t175.5 -274h262q-20 33 -91.5 149.5t-135.5 221t-136 223t-122.5 204.5t-65.5 116q-16 33 -20 71q-2 22 -2 39q0 13 1 25q3 26 10 47q23 69 277 470q8 13 24 13h313 q16 0 25 -14q9 -15 0 -30l-359 -634q-6 -11 -18 -14t-23 3t-14 18t3 23l335 589h-245q-244 -385 -262 -442q-9 -18 -9 -62t17 -76q27 -54 174 -298t264 -434.5t137 -222.5q8 -13 0 -29q-7 -15 -25 -15h-329q-17 0 -25 13q-3 6 -89.5 140t-180 280.5t-118.5 187.5 q-57 108 -57 278v680h-246v-1520h246v316q0 12 8.5 20t20.5 8t21 -8t9 -20v-346q0 -12 -9 -20.5t-21 -8.5h-305q-12 0 -20.5 8.5t-8.5 20.5z" />
<glyph unicode="l" horiz-adv-x="933" vert-adv-y="0" d="M0 29q0 12 8.5 21t20.5 9h641v233h-514q-32 0 -55.5 6t-48.5 22t-38.5 51.5t-13.5 88.5v1149q0 12 8.5 20.5t20.5 8.5h300q12 0 21 -8.5t9 -20.5l1 -1098q0 -12 -8.5 -20.5t-20.5 -8.5t-21 8.5t-9 20.5l-1 1068h-241v-1119q0 -70 22.5 -89.5t74.5 -19.5h544q12 0 20.5 -9 t8.5 -21v-292q0 -12 -8.5 -20.5t-20.5 -8.5h-671q-12 0 -20.5 8.5t-8.5 20.5z" />
<glyph unicode="m" horiz-adv-x="1431" vert-adv-y="0" d="M0 29v1580q0 12 8.5 20.5t20.5 8.5h118q37 0 64.5 -6t48 -21t29 -24t27.5 -31q3 -4 18 -19l518 -638q48 -58 59 -113t11 -163l-1 -35l1 -529h246v1520h-85q-69 0 -83 -5t-35 -39q-10 -15 -52.5 -86.5t-80.5 -134.5t-39 -64q-6 -10 -17.5 -13t-21.5 3t-13 18t3 22 q3 4 40.5 66t80.5 134.5t51 85.5q32 51 61 61.5t108 10.5h113q12 0 20.5 -8.5t8.5 -20.5v-1580q0 -12 -8.5 -20.5t-20.5 -8.5h-305q-12 0 -21 8.5t-9 20.5v559v35q0 74 -1.5 102.5t-14.5 66t-41 70.5l-516 635q-4 4 -9.5 12t-8.5 11q-18 22 -29 32t-35 18.5t-61 8.5h-88 v-1520h233v988v2q0 9 1 11q3 5 8 8q7 7 12 7q1 0 4 0.5t4 0.5q7 0 12 -3l9 -6v-2l264 -324q8 -10 6.5 -22t-11.5 -19q-10 -8 -22 -7.5t-19 10.5l-211 262v-936q0 -12 -9 -20.5t-21 -8.5h-290q-12 0 -20.5 8.5t-8.5 20.5z" />
<glyph unicode="n" horiz-adv-x="1335" vert-adv-y="0" d="M0 29v1580q0 12 8.5 20.5t20.5 8.5h233q75 0 118.5 -29.5t78.5 -91.5l616 -1116v1178h-256v-344q0 -12 -8.5 -20.5t-20.5 -8.5t-21 8.5t-9 20.5v374q0 12 9 20.5t21 8.5h314q12 0 20 -8.5t8 -20.5v-1321v-5q0 -7 -3 -11q-3 -5 -8 -8q-7 -5 -10 -5h-10q-7 0 -11 3 q-8 6 -10 8l-2 4l-670 1215q-28 50 -58 70t-88 20h-203v-1520h246v978v5q0 6 3 11q4 7 8 9q7 5 10 5h12q5 0 11 -4q5 -3 8 -8l3 -3l454 -868l33 -51q26 -40 57.5 -57t96.5 -17h103q12 0 20 -9t8 -21t-8 -20.5t-20 -8.5h-103q-73 0 -121 24t-84 78l-33 50v2l-399 765v-890 q0 -12 -9 -20.5t-21 -8.5h-305q-13 0 -21 8t-8 21z" />
<glyph unicode="o" horiz-adv-x="1212" vert-adv-y="0" d="M20 831q0 420 123 626t374 206q91 0 165 -29t124.5 -76t88 -118t58.5 -143t34 -163t17 -167t4 -165q0 -158 -21.5 -299.5t-65.5 -263t-122 -193t-181 -71.5h-3q-42 0 -77 9.5t-58.5 23t-43.5 35t-31 39t-20.5 43t-13 38t-8.5 33.5l-2 12q-19 79 -19 364q0 62 1 134v91 q0 368 33 461q43 121 134 121q56 0 90 -28.5t55 -94.5q29 -94 29 -427q0 -321 -16 -415q-20 -119 -84 -152q-11 -5 -22.5 -1t-16.5 15t-1.5 23t14.5 17q37 20 51 108q18 118 18 405q0 318 -28 409q-15 49 -34.5 65t-54.5 16q-23 0 -42 -16t-36 -64q-30 -88 -30 -442 q0 -11 -0.5 -41.5t-0.5 -49.5q-1 -69 -1 -129q0 -276 19 -355l3 -12q7 -30 11.5 -46t19 -44t33.5 -43.5t53 -28t79 -12.5h4q70 1 126.5 47t93 121.5t61 176.5t35 205.5t10.5 215.5q0 409 -105 604.5t-326 195.5q-224 0 -331 -188t-107 -583q0 -427 120 -640q1 -2 6 -10 t12 -17.5t15 -19.5q7 -9 6 -21.5t-9 -20.5t-21 -7t-20 10q-17 20 -38 54q-130 227 -130 672z" />
<glyph unicode="p" horiz-adv-x="1105" vert-adv-y="0" d="M0 29v743q0 77 35 112t112 35h253q34 0 53.5 5.5t38.5 25.5t27.5 64.5t8.5 117.5q0 106 -29.5 152t-98.5 46h-44v-249q0 -12 -8 -20.5t-20 -8.5t-21 8.5t-9 20.5v279q0 12 9 20.5t21 8.5h72q187 0 187 -257q0 -150 -42.5 -211t-144.5 -61h-253q-53 0 -70.5 -18t-17.5 -70 v-713h239v554q0 12 9 20.5t21 8.5h88q55 0 90 2t94.5 18.5t100.5 48.5q65 53 104 160t39 237q0 202 -87 335q-21 33 -45.5 57t-56 38.5t-56.5 23.5t-65 12.5t-64 4t-70 0.5h-341v-535q0 -12 -9 -21t-21 -9t-20.5 9t-8.5 21v565q0 12 8.5 20.5t20.5 8.5h371q48 0 73.5 -1 t70.5 -5t75 -14.5t66 -27.5t66 -46t55 -68q97 -147 97 -368q0 -144 -43.5 -262t-120.5 -181q-37 -29 -82 -47.5t-93.5 -25t-77.5 -8.5t-70 -2h-60v-553q0 -12 -8 -20.5t-20 -8.5h-299q-12 0 -20.5 8.5t-8.5 20.5z" />
<glyph unicode="q" horiz-adv-x="1187" vert-adv-y="0" d="M0 806q0 89 4 164.5t16.5 166t33.5 162t58.5 142t87.5 117.5t123.5 76t164.5 29q251 0 374 -205t123 -624q0 -428 -123 -656q0 -1 -1 -1.5t-1 -1.5l118 -151q12 -14 3 -32q-9 -17 -26 -17h-255q-12 0 -21 9t-9 22t9 21.5t21 8.5h193l-92 117q-13 19 2 38q0 1 0.5 2.5 t0.5 2.5q120 210 120 638q0 394 -106 581t-330 187q-220 0 -324.5 -194.5t-104.5 -601.5q0 -110 10.5 -214.5t35 -205t61 -175.5t93 -121t126.5 -47h2q38 0 67.5 7t49.5 22.5t33.5 29.5t23 38.5t13 37.5t9.5 37l4 12q19 79 19 354q0 60 -1 129q0 19 -1 49.5t-1 41.5 q0 352 -30 440q-17 48 -35.5 63t-42.5 15q-35 0 -53.5 -15.5t-33.5 -64.5q-28 -91 -28 -406q0 -286 18 -404q14 -89 49 -108q11 -5 15.5 -17t-0.5 -23t-16.5 -15t-22.5 1q-62 32 -82 152q-20 118 -20 414q0 323 31 423q21 66 54.5 95.5t88.5 29.5q91 0 134 -121 q33 -93 33 -459v-91q1 -72 1 -134q0 -285 -19 -363l-2 -11q-5 -21 -8 -33.5t-13 -38.5t-21 -43t-31 -39t-43.5 -35t-58.5 -23t-77 -10h-3q-83 0 -149.5 48t-110 127.5t-73 188t-42 223.5t-12.5 239z" />
<glyph unicode="r" horiz-adv-x="1142" vert-adv-y="0" d="M0 29v743q0 77 35 112t112 35h253q34 0 53.5 5.5t38.5 25.5t27.5 64.5t8.5 117.5q0 106 -29.5 152t-98.5 46h-44v-249q0 -12 -8 -20.5t-20 -8.5t-21 8.5t-9 20.5v279q0 12 9 20.5t21 8.5h72q187 0 187 -257q0 -150 -42.5 -211t-144.5 -61h-253q-53 0 -70.5 -18t-17.5 -70 v-713h239v554q0 12 9 20.5t21 8.5h105q9 0 19 -10q8 -8 8 -14l151 -559h257l-198 603q-2 3 -2 13q0 11 14 21q4 2 10.5 7.5t8.5 7.5q65 53 104 160t39 237q0 202 -87 335q-21 33 -45.5 57t-56 38.5t-56.5 23.5t-65 12.5t-64 4t-70 0.5h-341v-537q0 -12 -9 -20.5t-21 -8.5 t-20.5 8.5t-8.5 20.5v567q0 12 8.5 20.5t20.5 8.5h371q47 0 73 -1t70.5 -5t75 -14.5t66.5 -28t66 -46.5t55 -68q97 -147 97 -367q0 -144 -43.5 -262t-120.5 -181q-1 -1 -3.5 -2.5t-3.5 -2.5l205 -622q4 -12 -5 -27q-7 -11 -23 -11h-321q-23 0 -28 21l-150 561h-54v-553 q0 -12 -8 -20.5t-20 -8.5h-299q-12 0 -20.5 8.5t-8.5 20.5z" />
<glyph unicode="s" horiz-adv-x="1138" vert-adv-y="0" d="M0 426q-5 25 18 34l246 99q9 3 24 -2q11 -4 15 -20q9 -41 17 -66.5t21.5 -55t33.5 -47.5t48 -26q21 -6 40 -6q37 0 66 23q49 37 49 108q0 58 -27.5 91t-75.5 56q-11 5 -14.5 17t1.5 23t16.5 14.5t22.5 -1.5q60 -29 98 -74.5t38 -125.5q0 -102 -73 -156q-45 -35 -100 -35 q-28 0 -58 9q-36 10 -64 32.5t-45 54t-27 58t-18 60.5l-186 -75q10 -38 19 -65t26.5 -67t36.5 -68t50 -59.5t67 -51t87 -32.5t110 -13q125 0 218 43q91 44 145 142q50 91 50 197v16q-4 103 -54.5 180.5t-135.5 112.5q-66 27 -195 56q-44 10 -65 15t-62 16t-63.5 20t-57 24.5 t-54.5 31.5t-45.5 39.5t-41 50t-29.5 61.5t-21 75q-8 44 -8 85q0 142 93 255q63 75 154.5 117t192.5 42q160 0 270.5 -94.5t160.5 -273.5q5 -23 -16 -35l-230 -108q-12 -5 -24 0t-16 20q-28 122 -94 149q-19 8 -38 8t-38 -8q-37 -16 -57 -56q-14 -29 -13 -57q0 -17 4 -35 q14 -46 59 -78q10 -8 12.5 -19.5t-4.5 -21.5q-8 -10 -20.5 -12t-22.5 5q-64 44 -82 112q-7 25 -7 49q0 42 20 83q29 61 89 85q30 12 60 12q31 0 61 -13q83 -34 118 -154l175 82q-18 59 -45 108t-70 95t-107.5 72t-144.5 26q-88 0 -167.5 -36t-133.5 -101q-79 -97 -79 -217 q0 -36 7 -75q7 -38 19.5 -69.5t33 -56.5t40 -44.5t51 -35.5t54.5 -26.5t63 -21.5t64 -17t68 -16q139 -30 205 -57q102 -41 162 -132.5t64 -214.5v-19q0 -122 -58 -227q-63 -113 -170 -165q-100 -48 -244 -48q-56 0 -105.5 10t-87.5 25.5t-71.5 41.5t-57 49.5t-45 58.5 t-34 60t-25.5 62.5t-19 58t-15 53.5z" />
<glyph unicode="t" horiz-adv-x="1042" vert-adv-y="0" d="M0 1317v292q0 12 8.5 20.5t20.5 8.5h780q12 0 21 -8.5t9 -20.5v-298q0 -12 -9 -21t-21 -9h-77q-12 0 -20.5 9t-8.5 21t8.5 20.5t20.5 8.5h48v239h-721v-232h382q31 0 55 -6t48.5 -22.5t37.5 -52t13 -88.5v-1149q0 -12 -9 -20.5t-21 -8.5h-298q-12 0 -20.5 8.5t-8.5 20.5 v1093q0 12 8.5 21t20.5 9t21 -9t9 -21v-1063h239v1119q0 70 -22.5 90t-72.5 20h-412q-12 0 -20.5 8.5t-8.5 20.5z" />
<glyph unicode="u" horiz-adv-x="1089" vert-adv-y="0" d="M0 582v1027q0 12 8.5 20.5t20.5 8.5h295q12 0 21 -8.5t9 -20.5v-1273q0 -136 59 -207.5t141 -71.5q69 0 117 21.5t78 60t46.5 106t22.5 145t6 192.5v999h-234v-990q0 -111 -11 -176.5t-47 -101.5q-8 -8 -21 -9t-21 7t-8 20.5t8 20.5q26 26 33.5 84t7.5 155v1018 q0 12 8.5 20.5t20.5 8.5h294q12 0 21.5 -8.5t9.5 -20.5v-1027q0 -67 -2 -117t-7 -107.5t-15.5 -99.5t-26.5 -85.5t-41 -72.5t-58.5 -53t-79 -35.5t-101.5 -11.5h-2q-48 0 -93 20.5t-82 60t-59.5 106t-22.5 149.5v1245h-236v-999q0 -206 41.5 -321t132.5 -163q11 -5 13 -16 t-4 -21q-16 -25 -39 -13q-107 56 -155 182.5t-48 351.5z" />
<glyph unicode="v" horiz-adv-x="1312" vert-adv-y="0" d="M0 1602q-3 11 7 25q8 11 22 11h310q23 0 28 -21q1 -4 68 -257t142.5 -535.5t87.5 -329.5q11 -44 43 -44q34 0 46 42q99 372 288 1086h-224l-150 -573q-2 -12 -13 -17.5t-23 -3.5t-17.5 13t-3.5 23l154 594q2 10 11 16.5t19 6.5h286q15 0 23 -11q8 -12 5 -25 q-2 -8 -141.5 -534.5t-156.5 -589.5q-11 -39 -39 -62.5t-64 -23.5q-33 0 -61 21t-39 67q-12 48 -75 284.5t-134.5 504.5t-82.5 310h-249l359 -1520h242q12 0 21 -9t9 -21t-9 -20.5t-21 -8.5h-265q-1 0 -5 1t-5 1h-1q-2 0 -7 5h-2l-6 6v2q-3 3 -3 8z" />
<glyph unicode="w" horiz-adv-x="1818" vert-adv-y="0" d="M0 1602q-3 11 7 25q8 11 22 11h294q24 0 28 -24l159 -837l139 837q3 24 28 24q11 1 19 -6.5t10 -17.5l272 -1363q13 -61 32 -102t40.5 -59t38.5 -24.5t38 -6.5h67h40l314 1520h-231l-180 -976q-2 -10 -9.5 -17.5t-18.5 -7.5t-19.5 7t-9.5 18l-161 1001q-2 12 5.5 22.5 t19.5 11.5q12 2 21.5 -5t10.5 -19l135 -832l152 832q2 10 10.5 17t19.5 7h293q13 0 21 -11q9 -13 7 -23l-328 -1581q-2 -10 -10 -16.5t-18 -6.5h-64h-67h-6h-5q-144 7 -195 238v1l-241 1206l-139 -842q-1 -11 -10 -18t-20 -7t-19 7.5t-10 17.5l-184 976h-232l319 -1520h39h2 h3h69q44 0 80.5 39t62.5 153l39 241q1 12 11 19t22 5q12 -1 19 -11.5t5 -22.5l-39 -243v-1q-27 -122 -75.5 -180t-124.5 -58h-69h-3h-2h-62q-10 0 -18.5 6.5t-10.5 16.5z" />
<glyph unicode="x" horiz-adv-x="1433" vert-adv-y="0" d="M3 13q-9 15 0 30l326 652q5 11 17 15t23 -1t14.5 -17.5t-1.5 -23.5l-305 -609h247l204 393q24 46 28 80l2 22q0 22 -6 44q-10 32 -38 88q-21 41 -140 272.5t-222 433t-104 204.5q-8 13 1 28q9 14 25 14h298q18 0 26 -16l216 -428l217 428q8 16 26 16h298q16 0 25 -14 q9 -15 1 -28l-385 -747l430 -806q9 -14 0 -28q-9 -15 -27 -15h-313q-18 0 -26 16l-183 358q-13 28 11 39q11 5 23.5 1.5t17.5 -14.5l175 -341h246l-413 777q-8 13 0 26l371 717h-233l-233 -462q-4 -6 -6 -8q-8 -8 -21.5 -8t-21.5 8q-5 5 -5 8l-236 462h-229 q348 -669 446 -866q31 -63 42 -104q7 -26 7 -52q0 -16 -2 -32q-6 -43 -36 -99l-211 -410q-8 -16 -27 -16h-313q-18 0 -26 13z" />
<glyph unicode="y" horiz-adv-x="1157" vert-adv-y="0" d="M2 1601q-5 13 3 26q7 11 24 11h290q23 0 28 -19q181 -524 230 -667q12 -34 46 -34q43 0 54 32q13 38 98 298.5t108 330.5h-226l-67 -268q-2 -12 -13 -18t-23 -4t-18 13t-4 23l73 290q2 10 10.5 16.5t18.5 6.5h290q18 0 25 -11q8 -13 3 -26q-1 -2 -48.5 -146.5 t-102.5 -312.5t-69 -211q-11 -32 -41.5 -53t-67.5 -21q-36 0 -63 20t-39 55q-140 409 -223 647h-229l283 -861q0 -2 1 -5t1 -5v-649h246v634q0 12 8.5 20t20.5 8t21 -8t9 -20v-664q0 -12 -9 -20.5t-21 -8.5h-305q-12 0 -20.5 8.5t-8.5 20.5v674z" />
<glyph unicode="z" horiz-adv-x="1171" vert-adv-y="0" d="M0 29v136q0 58 13 112t24.5 79.5t31.5 61.5l1 6q28 50 226.5 413t260.5 480h-528q-12 0 -20.5 9t-8.5 21v262q0 12 8.5 20.5t20.5 8.5h910q12 0 20.5 -8.5t8.5 -20.5v-131q0 -82 -13 -129t-54 -127l-609 -1163h617v218h-321q-12 0 -20.5 8.5t-8.5 20.5t8.5 21t20.5 9h351 q12 0 20.5 -9t8.5 -21v-277q0 -12 -8.5 -20.5t-20.5 -8.5h-697q-15 0 -24 15q-9 14 0 28l631 1205q37 72 48.5 113.5t11.5 116.5v101h-850v-204h547q17 0 25 -13q9 -15 0 -30q-482 -886 -508 -934l-3 -8q-18 -33 -28.5 -56.5t-21.5 -70.5t-11 -98v-136q0 -12 -9 -20.5 t-21 -8.5t-20.5 8.5t-8.5 20.5z" />
<glyph unicode="&#xa0;" horiz-adv-x="712" vert-adv-y="0" />
<glyph unicode="&#xa1;" horiz-adv-x="616" vert-adv-y="0" d="M0 159q0 45 12.5 389t25.5 692t14 367v2v2v4l2 4v1q0 1 1.5 2.5t1.5 2.5q2 4 9 8q1 2 3 2l1 2h4l3 1h2h3h247q12 0 21 -9.5t9 -21.5v-1v-4l3 -105q0 -12 -8.5 -21.5t-20.5 -9.5h-2q-12 0 -21 9t-9 21l-1 82h-189q-50 -1407 -50 -1419q0 -64 16 -81t70 -17h235 q12 0 21.5 -9t9.5 -21t-9.5 -21.5t-21.5 -9.5h-235q-80 0 -113.5 36t-33.5 123zM175 1316q0 12 9.5 20.5t21.5 8.5h63h5q51 -7 74.5 -45.5t25.5 -116.5l1 -22q1 -22 1.5 -49t0.5 -40l29 -839q0 -12 -9.5 -21t-21.5 -9t-20.5 8t-8.5 20l-30 837l-3 113q-1 44 -9.5 68.5 t-16.5 30t-20 6.5h-61q-12 0 -21.5 9t-9.5 21z" />
<glyph unicode="&#xa8;" horiz-adv-x="806" vert-adv-y="0" d="M13 1830q-24 62 4 124q28 60 92 85q62 24 126 -2q62 -28 87 -91t-3 -124q-26 -57 -87 -83q-6 -2 -9 -2q-16 0 -22 14q-4 9 0 18.5t13 13.5q43 18 60 59q21 44 3 87q-19 46 -61 65q-42 17 -90 1q-45 -16 -66 -60q-20 -44 -2 -88q18 -45 63 -63q9 -4 12 -13.5t-1 -18.5 q-8 -20 -31 -11q-64 26 -88 89zM464 1830q-24 62 4 124q28 60 91 85q62 24 126 -2q62 -28 87 -91t-3 -124q-26 -58 -86 -83q-6 -2 -10 -2q-16 0 -22 14q-4 9 0 18.5t13 13.5q43 18 60 59q21 44 3 87q-19 47 -60 65q-43 18 -91 1q-44 -15 -65 -60t-3 -88q18 -45 63 -63 q9 -4 12.5 -13.5t-0.5 -18.5t-13.5 -12t-18.5 1q-62 26 -87 89z" />
<glyph unicode="&#xad;" horiz-adv-x="704" vert-adv-y="0" d="M-3 709v189q0 12 8.5 20.5t20.5 8.5h446q12 0 20.5 -8.5t8.5 -20.5v-189q0 -12 -8.5 -20.5t-20.5 -8.5t-21 8.5t-9 20.5v159h-386v-129h193q12 0 21 -9t9 -21t-9 -19.5t-21 -7.5h-223q-12 0 -20.5 7.5t-8.5 19.5z" />
<glyph unicode="&#xb4;" horiz-adv-x="421" vert-adv-y="0" d="M4.5 1861.5q-4.5 11.5 0.5 22.5l74 171q13 27 37 16l274 -118q11 -5 15.5 -16.5t-0.5 -22.5l-74 -171q-12 -26 -38 -14q-27 13 -16 37l64 144l-220 95l-52 -118l110 -45q11 -5 16 -17t0 -23t-16.5 -16t-22.5 0l-136 59q-11 5 -15.5 16.5z" />
<glyph unicode="&#xba;" horiz-adv-x="532" vert-adv-y="0" d="M13 1830q-24 62 4 124q28 60 92 85q62 24 126 -2q62 -28 87 -91t-3 -124q-26 -57 -87 -83q-6 -2 -9 -2q-16 0 -22 14q-4 9 0 18.5t13 13.5q43 18 60 59q21 44 3 87q-19 46 -61 65q-42 17 -90 1q-45 -16 -66 -60q-20 -44 -2 -88q18 -45 63 -63q9 -4 12 -13.5t-1 -18.5 q-8 -20 -31 -11q-64 26 -88 89z" />
<glyph unicode="&#xbf;" horiz-adv-x="1054" vert-adv-y="0" d="M1.5 365.5q-0.5 51.5 9 88.5t35 71.5t47.5 55.5t59.5 43.5t58.5 32.5t58 26q11 4 59 30q66 39 106 76.5t60 84.5t26 92t6 117v103q0 82 -33 100h-67q-12 0 -21 9t-9 21t9 20.5t21 8.5h74q6 0 11 -3q74 -30 74 -156v-103q0 -81 -8.5 -135t-32.5 -106.5t-69 -94.5t-118 -85 q-26 -15 -65 -31q-26 -11 -41.5 -18t-41.5 -21t-41.5 -25t-36.5 -29.5t-32.5 -36t-23 -42.5t-14 -52t0 -61t12.5 -72q22 -57 59 -99t73.5 -63.5t79.5 -34t69 -15.5t50 -3q33 0 70 5t101.5 32t109.5 74q107 113 107 322l-203 31q-2 -50 -6 -81t-14 -66.5t-26.5 -55.5t-45 -33 t-69.5 -13q-137 0 -137 203q0 12 8.5 20.5t20.5 8.5t20 -8.5t8 -20.5q0 -41 6 -70t13.5 -43t20.5 -21.5t20.5 -8.5t19.5 -1q63 0 81 41.5t24 184.5q0 14 10 21q13 9 23 7l259 -41q10 -1 17 -10.5t7 -19.5q11 -251 -121 -387q-40 -42 -90.5 -70.5t-99 -40t-78 -15t-56.5 -3.5 q-28 0 -58.5 3.5t-81 18.5t-93 40.5t-86 75t-68.5 116.5v2q-16 58 -16.5 109.5zM48.5 711.5q-2.5 12.5 3.5 22.5q7 11 15.5 21t19.5 20.5t17.5 17t20 18.5t18.5 16q9 7 47 43q24 23 38.5 45t22.5 56.5t11 56t8 76.5l2 7l10 498q0 2 0.5 5.5t0.5 4.5v1q5 18 25 18h3h233 q12 0 20 -7.5t8 -19.5l5 -110q0 -12 -8 -21.5t-20 -9.5h-2q-11 0 -20 8.5t-9 20.5l-4 80h-173l-12 -480q-6 -70 -12 -105.5t-27 -82t-59 -82.5q-9 -9 -27 -24.5t-24 -21.5q-56 -50 -78 -82q-8 -13 -27 -13q-6 0 -14 5q-10 6 -12.5 18.5z" />
<glyph unicode="&#xc0;" horiz-adv-x="1296" vert-adv-y="0" d="M2 34l142 597l236 984q2 10 11 16.5t19 6.5h316q10 0 18 -6.5t10 -16.5l236 -983l144 -598q0 -17 -5 -24q-7 -10 -23 -10h-298h-8q-5 0 -12 5q-2 2 -3.5 6t-2.5 5q0 1 -2 4.5t-2 4.5l-42 226l-17 90h-129q-12 0 -21 8.5t-9 20.5t9 21t21 9h151q11 1 20.5 -6.5t11.5 -18.5 l20 -114l38 -204h237l-134 561l-231 960h-270l-230 -960l-134 -561h239l82 451q13 74 50 110t122 36h3h4h91l-91 496l-64 -347q-2 -12 -12.5 -18.5t-22.5 -4.5t-19 12t-5 22l93 503q2 10 10.5 17.5t19.5 7.5q23 0 27 -25l128 -686v-3v-10q0 -3 -6 -12q-2 -2 -10 -8 q-3 -2 -10 -2h-3h-126h-4h-3q-60 0 -82.5 -21t-32.5 -79l-87 -471q0 -1 -0.5 -4.5t-0.5 -4.5q-4 -7 -8 -9q-7 -7 -12 -7h-8h-300q-16 0 -23 10q-9 12 -6 24zM385 1801l36 180q2 12 12 18.5t22 4.5l295 -66q12 -2 18 -11.5t4 -21.5l-38 -181q-2 -12 -12 -18t-22 -4 t-18.5 12.5t-4.5 22.5l31 152l-235 53l-26 -125l118 -26q12 -2 18.5 -12.5t4.5 -22.5t-12 -18.5t-22 -4.5l-146 33q-12 2 -18.5 12.5t-4.5 22.5z" />
<glyph unicode="&#xc1;" horiz-adv-x="1296" vert-adv-y="0" d="M2 34l142 597l236 984q2 10 11 16.5t19 6.5h316q10 0 18 -6.5t10 -16.5l236 -983l144 -598q0 -17 -5 -24q-7 -10 -23 -10h-298h-8q-5 0 -12 5q-2 2 -3.5 6t-2.5 5q0 1 -2 4.5t-2 4.5l-42 226l-17 90h-129q-12 0 -21 8.5t-9 20.5t9 21t21 9h151q11 1 20.5 -6.5t11.5 -18.5 l20 -114l38 -204h237l-134 561l-231 960h-270l-230 -960l-134 -561h239l82 451q13 74 50 110t122 36h3h4h91l-91 496l-64 -347q-2 -12 -12.5 -18.5t-22.5 -4.5t-19 12t-5 22l93 503q2 10 10.5 17.5t19.5 7.5q23 0 27 -25l128 -686v-3v-10q0 -3 -6 -12q-2 -2 -10 -8 q-3 -2 -10 -2h-3h-126h-4h-3q-60 0 -82.5 -21t-32.5 -79l-87 -471q0 -1 -0.5 -4.5t-0.5 -4.5q-4 -7 -8 -9q-7 -7 -12 -7h-8h-300q-16 0 -23 10q-9 12 -6 24zM370 1887q-5 11 0.5 22.5t16.5 15.5l280 108q25 8 36 -16l70 -172q5 -11 0 -21.5t-16 -14.5q-27 -9 -39 16l-59 144 l-223 -88l47 -116l112 44q11 4 22.5 -1t16.5 -16t-0.5 -22t-17.5 -15l-138 -54q-28 -9 -39 14z" />
<glyph unicode="&#xc4;" horiz-adv-x="1296" vert-adv-y="0" d="M2 34l142 597l236 984q2 10 11 16.5t19 6.5h316q10 0 18 -6.5t10 -16.5l236 -983l144 -598q0 -17 -5 -24q-7 -10 -23 -10h-298h-8q-5 0 -12 5q-2 2 -3.5 6t-2.5 5q0 1 -2 4.5t-2 4.5l-42 226l-17 90h-129q-12 0 -21 8.5t-9 20.5t9 21t21 9h151q11 1 20.5 -6.5t11.5 -18.5 l20 -114l38 -204h237l-134 561l-231 960h-270l-230 -960l-134 -561h239l82 451q13 74 50 110t122 36h3h4h91l-91 496l-64 -347q-2 -12 -12.5 -18.5t-22.5 -4.5t-19 12t-5 22l93 503q2 10 10.5 17.5t19.5 7.5q23 0 27 -25l128 -686v-3v-10q0 -3 -6 -12q-2 -2 -10 -8 q-3 -2 -10 -2h-3h-126h-4h-3q-60 0 -82.5 -21t-32.5 -79l-87 -471q0 -1 -0.5 -4.5t-0.5 -4.5q-4 -7 -8 -9q-7 -7 -12 -7h-8h-300q-16 0 -23 10q-9 12 -6 24zM185 1830q-24 62 4 124q28 60 92 85q62 24 126 -2q62 -28 87 -91t-3 -124q-26 -57 -87 -83q-6 -2 -9 -2 q-16 0 -22 14q-4 9 0 18.5t13 13.5q43 18 60 59q21 44 3 87q-19 46 -61 65q-42 17 -90 1q-45 -16 -66 -60q-20 -44 -2 -88q18 -45 63 -63q9 -4 12 -13.5t-1 -18.5q-8 -20 -31 -11q-64 26 -88 89zM636 1830q-24 62 4 124q28 60 91 85q62 24 126 -2q62 -28 87 -91t-3 -124 q-26 -58 -86 -83q-6 -2 -10 -2q-16 0 -22 14q-4 9 0 18.5t13 13.5q44 19 61 59q20 43 2 87q-19 47 -60 65q-43 18 -91 1q-44 -15 -65 -60t-3 -88q18 -45 63 -63q9 -4 12.5 -13.5t-0.5 -18.5q-8 -20 -31 -11q-64 26 -88 89z" />
<glyph unicode="&#xc7;" horiz-adv-x="1189" vert-adv-y="0" d="M-2 811q0 508 205 711q121 121 307 121h3q53 0 101.5 -11t101 -36t96 -72t80.5 -113.5t61.5 -166t32.5 -223.5q0 -12 -8 -20.5t-20 -10.5l-324 -27q-11 0 -21 7t-10 21v13q-1 40 -2 68t-4.5 67.5t-9 66t-14.5 52t-22.5 38.5t-31.5 13h-1q-37 0 -59 -16.5t-40 -65.5 q-41 -111 -41 -434v-157v-2q0 -4 4 -116q1 -28 1 -136l17 -511q0 -29 20 -49t49 -20q28 0 48 20t20 49v155q0 17 15 26q12 7 18 7q56 0 103.5 20.5t80.5 52.5t60.5 77.5t44 90t29 95.5t18 89t8.5 75l-255 18q0 -3 -1 -11t-1 -12q-1 -40 -1.5 -59t-5.5 -58.5t-13.5 -63 t-25.5 -50.5t-41 -43q-10 -7 -21.5 -4.5t-19.5 12.5q-7 10 -4.5 21.5t12.5 19.5q21 14 34 38.5t18 63.5t6.5 58t2.5 65q0 33 3 57q2 12 10.5 20.5t20.5 7.5l317 -23q12 0 19 -9t7 -22q-2 -35 -6.5 -73.5t-17 -96.5t-29.5 -110t-47 -107t-67 -96t-92 -69t-120 -33v-129 q0 -53 -37.5 -90.5t-89.5 -37.5q-53 0 -90.5 37.5t-37.5 90.5l-17 509q0 108 -1 136q-4 112 -4 118v161q0 328 45 452q23 65 59 93t95 28h1q27 0 48 -11t35 -27.5t24.5 -46t16 -54.5t9.5 -65.5t5.5 -67.5t2.5 -72l266 23q-22 266 -126.5 400.5t-288.5 136.5h-1 q-161 0 -266 -105q-187 -185 -187 -668q0 -470 171 -649q8 -8 8 -21t-8 -21q-9 -9 -22 -9q-12 0 -21 9q-187 194 -187 691z" />
<glyph unicode="&#xc8;" vert-adv-y="0" d="M0 29v522v1q0 73 51.5 125t125.5 54h3h482v205h-328q-12 0 -20.5 8.5t-8.5 20.5v367q0 12 8.5 21t20.5 9h436v217h-711v-753q0 -12 -9 -20t-21 -8t-20.5 8t-8.5 20v783q0 12 8.5 20.5t20.5 8.5h771q12 0 20.5 -8.5t8.5 -20.5v-277q0 -12 -8.5 -20.5t-20.5 -8.5h-436v-308 h326q12 0 20.5 -9t8.5 -21v-264q0 -12 -8.5 -20t-20.5 -8h-506q-52 0 -88.5 -36t-36.5 -86v-2v-490h711v218h-436q-12 0 -20.5 8.5t-8.5 20.5v204q0 12 8.5 20.5t20.5 8.5t21 -8.5t9 -20.5v-174h436q12 0 20.5 -9t8.5 -21v-277q0 -12 -8.5 -20.5t-20.5 -8.5h-771 q-12 0 -20.5 8.5t-8.5 20.5zM221 1801l36 180q2 12 12.5 18.5t22.5 4.5l293 -66q12 -2 18.5 -11.5t4.5 -21.5l-38 -181q-2 -12 -12 -18t-22 -4t-18.5 12.5t-4.5 22.5l31 152l-234 53l-27 -125l118 -26q12 -2 18.5 -12.5t4.5 -22.5t-12 -18.5t-22 -4.5l-146 33 q-12 2 -18.5 12.5t-4.5 22.5z" />
<glyph unicode="&#xc9;" vert-adv-y="0" d="M0 29v522v1q0 73 51.5 125t125.5 54h3h482v205h-328q-12 0 -20.5 8.5t-8.5 20.5v367q0 12 8.5 21t20.5 9h436v217h-711v-753q0 -12 -9 -20t-21 -8t-20.5 8t-8.5 20v783q0 12 8.5 20.5t20.5 8.5h771q12 0 20.5 -8.5t8.5 -20.5v-277q0 -12 -8.5 -20.5t-20.5 -8.5h-436v-308 h326q12 0 20.5 -9t8.5 -21v-264q0 -12 -8.5 -20t-20.5 -8h-506q-52 0 -88.5 -36t-36.5 -86v-2v-490h711v218h-436q-12 0 -20.5 8.5t-8.5 20.5v204q0 12 8.5 20.5t20.5 8.5t21 -8.5t9 -20.5v-174h436q12 0 20.5 -9t8.5 -21v-277q0 -12 -8.5 -20.5t-20.5 -8.5h-771 q-12 0 -20.5 8.5t-8.5 20.5zM205 1887q-5 11 0.5 22.5t17.5 15.5l280 108q26 9 38 -16l68 -172q5 -11 0 -21.5t-16 -14.5q-27 -9 -39 16l-59 144l-223 -88l47 -116l112 44q11 4 22.5 -1t16.5 -16t0 -22t-16 -15l-141 -54q-27 -9 -38 14z" />
<glyph unicode="&#xcb;" vert-adv-y="0" d="M0 29v522v1q0 73 51.5 125t125.5 54h3h482v205h-328q-12 0 -20.5 8.5t-8.5 20.5v367q0 12 8.5 21t20.5 9h436v217h-711v-753q0 -12 -9 -20t-21 -8t-20.5 8t-8.5 20v783q0 12 8.5 20.5t20.5 8.5h771q12 0 20.5 -8.5t8.5 -20.5v-277q0 -12 -8.5 -20.5t-20.5 -8.5h-436v-308 h326q12 0 20.5 -9t8.5 -21v-264q0 -12 -8.5 -20t-20.5 -8h-506q-52 0 -88.5 -36t-36.5 -86v-2v-490h711v218h-436q-12 0 -20.5 8.5t-8.5 20.5v204q0 12 8.5 20.5t20.5 8.5t21 -8.5t9 -20.5v-174h436q12 0 20.5 -9t8.5 -21v-277q0 -12 -8.5 -20.5t-20.5 -8.5h-771 q-12 0 -20.5 8.5t-8.5 20.5zM48 1830q-24 62 4 124q28 60 92 85q62 24 125 -2q62 -28 87 -91t-3 -124q-26 -58 -86 -83q-6 -2 -9 -2q-17 0 -23 14q-4 9 0 18.5t13 13.5q44 19 61 59q20 43 2 87q-19 47 -60 65q-42 17 -90 1q-45 -16 -66 -60q-21 -45 -3 -88q18 -45 63 -63 q9 -4 12.5 -13.5t-0.5 -18.5q-8 -20 -31 -11q-64 26 -88 89zM498 1830q-24 62 4 124q28 60 92 85q62 24 126 -2q62 -28 87 -91t-3 -124q-26 -57 -87 -83q-6 -2 -9 -2q-16 0 -22 14q-4 9 0 18.5t13 13.5q43 18 60 59q21 44 3 87q-19 47 -60 65q-43 18 -91 1q-44 -15 -65 -60 t-3 -88q18 -45 63 -63q9 -4 12.5 -13.5t-0.5 -18.5t-13.5 -12t-18.5 1q-64 26 -88 89z" />
<glyph unicode="&#xcc;" horiz-adv-x="569" vert-adv-y="0" d="M-21 1801l36 180q2 12 12 18.5t22 4.5l293 -66q12 -2 18.5 -11.5t4.5 -21.5l-37 -181q-2 -12 -12.5 -18t-22.5 -4t-18.5 12.5t-4.5 22.5l31 152l-234 53l-26 -125l118 -26q12 -2 18.5 -12.5t4.5 -22.5t-12.5 -18.5t-22.5 -4.5l-145 33q-12 2 -18.5 12.5t-4.5 22.5zM0 29 v1095q0 53 13.5 89t38 52t48 22t54.5 6h36q12 0 21 -9t9 -21t-9 -20.5t-21 -8.5h-36q-50 0 -72.5 -20t-22.5 -90v-1065h238v1520h-238v-149q0 -12 -9 -20.5t-21 -8.5t-20.5 8.5t-8.5 20.5v179q0 12 8.5 20.5t20.5 8.5h295q12 0 21 -8.5t9 -20.5v-1580q0 -12 -9 -20.5 t-21 -8.5h-295q-12 0 -20.5 8.5t-8.5 20.5z" />
<glyph unicode="&#xcd;" horiz-adv-x="591" vert-adv-y="0" d="M-18 1887q-5 11 0 22.5t16 15.5l281 108q25 8 36 -16l70 -172q5 -11 0 -21.5t-16 -14.5q-28 -9 -40 16l-57 144l-224 -88l47 -116l111 44q11 4 23 -1t17 -16t-0.5 -22t-16.5 -15l-139 -54q-28 -9 -39 14zM0 29v1095q0 53 13.5 89t38 52t48 22t54.5 6h36q12 0 21 -9t9 -21 t-9 -20.5t-21 -8.5h-36q-50 0 -72.5 -20t-22.5 -90v-1065h238v1520h-238v-149q0 -12 -9 -20.5t-21 -8.5t-20.5 8.5t-8.5 20.5v179q0 12 8.5 20.5t20.5 8.5h295q12 0 21 -8.5t9 -20.5v-1580q0 -12 -9 -20.5t-21 -8.5h-295q-12 0 -20.5 8.5t-8.5 20.5z" />
<glyph unicode="&#xcf;" horiz-adv-x="901" vert-adv-y="0" d="M7 1830q-24 62 4 124q28 60 92 85q62 24 125 -2q62 -28 87 -91t-3 -124q-26 -58 -86 -83q-6 -2 -9 -2q-17 0 -23 14q-4 9 0.5 18.5t13.5 13.5q43 18 60 59q20 43 2 87q-19 47 -60 65q-42 17 -90 1q-45 -16 -66 -60q-20 -44 -2 -88q19 -45 62 -63q9 -4 12.5 -13.5 t-0.5 -18.5q-8 -20 -31 -11q-64 26 -88 89zM172 29v1095q0 53 13.5 89t38 52t48 22t54.5 6h36q12 0 21 -9t9 -21t-9 -20.5t-21 -8.5h-36q-50 0 -72.5 -20t-22.5 -90v-1065h238v1520h-238v-149q0 -12 -8.5 -20.5t-20.5 -8.5t-21 8.5t-9 20.5v179q0 12 9 20.5t21 8.5h294 q12 0 21 -8.5t9 -20.5v-1580q0 -12 -9 -20.5t-21 -8.5h-294q-12 0 -21 8.5t-9 20.5zM408 1830q-24 62 4 124q28 60 92 85q62 24 126 -2q62 -28 87 -91t-3 -124q-26 -57 -87 -83q-6 -2 -9 -2q-16 0 -22 14q-4 9 0 18.5t13 13.5q43 18 60 59q21 44 3 87q-19 47 -60 65 q-43 18 -91 1q-44 -15 -65 -60t-3 -88q18 -45 63 -63q9 -4 12.5 -13.5t-0.5 -18.5t-13.5 -12t-18.5 1q-64 26 -88 89z" />
<glyph unicode="&#xd2;" horiz-adv-x="1191" vert-adv-y="0" d="M0 831q0 420 123 626t373 206q91 0 165 -29t124.5 -76t88 -118t59 -143t34.5 -163t17 -167t4 -165q0 -158 -21.5 -299.5t-65.5 -263t-122 -193t-181 -71.5h-3q-57 1 -102 18.5t-70 40t-43.5 58t-24.5 55.5t-13 49l-1 12q-23 96 -18 498v91q0 368 33 461q43 121 134 121 q56 0 89.5 -28.5t54.5 -94.5q30 -97 30 -427q0 -315 -17 -415q-20 -120 -83 -152q-11 -5 -23 -1t-17 15t-1.5 23t14.5 17q37 20 51 108q18 118 18 405q0 318 -28 409q-15 49 -34 65t-54 16q-23 0 -42.5 -16t-36.5 -64q-29 -85 -29 -442q0 -11 -1 -41.5t-1 -49.5 q-5 -388 18 -484l3 -12q7 -29 11.5 -45.5t19.5 -44.5t33.5 -43.5t53 -28t79.5 -12.5h3q70 1 126.5 47t93 121.5t61 176.5t35 205.5t10.5 215.5q0 409 -105 604.5t-326 195.5q-224 0 -330.5 -188t-106.5 -583q0 -427 120 -640q1 -2 6 -9.5t11.5 -17.5t14.5 -20q7 -9 6 -21.5 t-9 -20.5t-21 -7t-20 10q-17 20 -38 54q-129 226 -129 672zM303 1801l36 180q2 12 13 18.5t23 4.5l293 -66q12 -2 18 -11.5t4 -21.5l-38 -181q-2 -12 -12 -18t-22 -4t-18.5 12.5t-4.5 22.5l31 152l-234 53l-25 -125l116 -26q12 -2 18.5 -12.5t4.5 -22.5t-12 -18.5t-22 -4.5 l-146 33q-12 2 -18.5 12.5t-4.5 22.5z" />
<glyph unicode="&#xd3;" horiz-adv-x="1191" vert-adv-y="0" d="M0 831q0 420 123 626t373 206q91 0 165 -29t124.5 -76t88 -118t59 -143t34.5 -163t17 -167t4 -165q0 -158 -21.5 -299.5t-65.5 -263t-122 -193t-181 -71.5h-3q-57 1 -102 18.5t-70 40t-43.5 58t-24.5 55.5t-13 49l-1 12q-23 96 -18 498v91q0 368 33 461q43 121 134 121 q56 0 89.5 -28.5t54.5 -94.5q30 -97 30 -427q0 -315 -17 -415q-20 -120 -83 -152q-11 -5 -23 -1t-17 15t-1.5 23t14.5 17q37 20 51 108q18 118 18 405q0 318 -28 409q-15 49 -34 65t-54 16q-23 0 -42.5 -16t-36.5 -64q-29 -85 -29 -442q0 -11 -1 -41.5t-1 -49.5 q-5 -388 18 -484l3 -12q7 -29 11.5 -45.5t19.5 -44.5t33.5 -43.5t53 -28t79.5 -12.5h3q70 1 126.5 47t93 121.5t61 176.5t35 205.5t10.5 215.5q0 409 -105 604.5t-326 195.5q-224 0 -330.5 -188t-106.5 -583q0 -427 120 -640q1 -2 6 -9.5t11.5 -17.5t14.5 -20q7 -9 6 -21.5 t-9 -20.5t-21 -7t-20 10q-17 20 -38 54q-129 226 -129 672zM288 1887q-5 11 0.5 22.5t16.5 15.5l280 108q25 8 36 -16l70 -172q5 -11 0 -21.5t-16 -14.5q-27 -9 -39 16l-58 144l-224 -88l47 -116l112 44q11 4 22.5 -1t16.5 -16t0 -22t-16 -15l-140 -54q-28 -9 -39 14z" />
<glyph unicode="&#xd6;" horiz-adv-x="1085" vert-adv-y="0" d="M0 831q0 420 123 626t373 206q91 0 165 -29t124.5 -76t88 -118t59 -143t34.5 -163t17 -167t4 -165q0 -158 -21.5 -299.5t-65.5 -263t-122 -193t-181 -71.5h-3q-57 1 -102 18.5t-70 40t-43.5 58t-24.5 55.5t-13 49l-1 12q-23 96 -18 498v91q0 368 33 461q43 121 134 121 q56 0 89.5 -28.5t54.5 -94.5q30 -97 30 -427q0 -315 -17 -415q-20 -120 -83 -152q-11 -5 -23 -1t-17 15t-1.5 23t14.5 17q37 20 51 108q18 118 18 405q0 318 -28 409q-15 49 -34 65t-54 16q-23 0 -42.5 -16t-36.5 -64q-29 -85 -29 -442q0 -11 -1 -41.5t-1 -49.5 q-5 -388 18 -484l3 -12q7 -29 11.5 -45.5t19.5 -44.5t33.5 -43.5t53 -28t79.5 -12.5h3q70 1 126.5 47t93 121.5t61 176.5t35 205.5t10.5 215.5q0 409 -105 604.5t-326 195.5q-224 0 -330.5 -188t-106.5 -583q0 -427 120 -640q1 -2 6 -9.5t11.5 -17.5t14.5 -20q7 -9 6 -21.5 t-9 -20.5t-21 -7t-20 10q-17 20 -38 54q-129 226 -129 672zM109 1830q-24 62 4 124q28 60 92 85q62 24 126 -2q62 -28 87 -91t-3 -124q-26 -57 -87 -83q-6 -2 -9 -2q-16 0 -22 14q-4 9 0 18.5t13 13.5q43 18 60 59q21 44 3 87q-19 47 -60 65q-43 18 -91 1q-44 -15 -65 -60 t-3 -88q18 -45 63 -63q9 -4 12.5 -13.5t-0.5 -18.5t-13.5 -12t-18.5 1q-64 26 -88 89zM560 1830q-24 62 4 124q28 60 92 85q62 24 125 -2q62 -28 87 -91t-3 -124q-26 -58 -86 -83q-6 -2 -9 -2q-17 0 -23 14q-4 9 0 18.5t13 13.5q44 19 61 59q20 43 2 87q-19 47 -60 65 q-42 17 -90 1q-45 -16 -66 -60q-21 -45 -3 -88q18 -45 63 -63q9 -4 12.5 -13.5t-0.5 -18.5q-8 -20 -31 -11q-64 26 -88 89z" />
<glyph unicode="&#xd9;" horiz-adv-x="1089" vert-adv-y="0" d="M0 582v1027q0 12 8.5 20.5t20.5 8.5h295q12 0 21 -8.5t9 -20.5v-1273q0 -136 59 -207.5t141 -71.5q69 0 117 21.5t78 60t46.5 106t22.5 145t6 192.5v999h-234v-990q0 -111 -11 -176.5t-47 -101.5q-8 -8 -21 -9t-21 7t-8 20.5t8 20.5q26 26 33.5 84t7.5 155v1018 q0 12 8.5 20.5t20.5 8.5h294q12 0 21.5 -8.5t9.5 -20.5v-1027q0 -67 -2 -117t-7 -107.5t-15.5 -99.5t-26.5 -85.5t-41 -72.5t-58.5 -53t-79 -35.5t-101.5 -11.5h-2q-48 0 -93 20.5t-82 60t-59.5 106t-22.5 149.5v1245h-236v-999q0 -206 41.5 -321t132.5 -163q11 -5 13 -16 t-4 -21q-16 -25 -39 -13q-107 56 -155 182.5t-48 351.5zM238 1801l36 180q2 12 12 18.5t22 4.5l295 -66q26 -5 21 -33l-37 -181q-2 -12 -12.5 -18t-22.5 -4t-18.5 12.5t-4.5 22.5l31 152l-234 53l-25 -125l117 -26q12 -2 18.5 -12.5t4.5 -22.5t-12.5 -18.5t-22.5 -4.5 l-145 33q-12 2 -18.5 12.5t-4.5 22.5z" />
<glyph unicode="&#xda;" horiz-adv-x="1089" vert-adv-y="0" d="M0 582v1027q0 12 8.5 20.5t20.5 8.5h295q12 0 21 -8.5t9 -20.5v-1273q0 -136 59 -207.5t141 -71.5q69 0 117 21.5t78 60t46.5 106t22.5 145t6 192.5v999h-234v-990q0 -111 -11 -176.5t-47 -101.5q-8 -8 -21 -9t-21 7t-8 20.5t8 20.5q26 26 33.5 84t7.5 155v1018 q0 12 8.5 20.5t20.5 8.5h294q12 0 21.5 -8.5t9.5 -20.5v-1027q0 -67 -2 -117t-7 -107.5t-15.5 -99.5t-26.5 -85.5t-41 -72.5t-58.5 -53t-79 -35.5t-101.5 -11.5h-2q-48 0 -93 20.5t-82 60t-59.5 106t-22.5 149.5v1245h-236v-999q0 -206 41.5 -321t132.5 -163q11 -5 13 -16 t-4 -21q-16 -25 -39 -13q-107 56 -155 182.5t-48 351.5zM223 1887q-5 11 0 22.5t16 15.5l280 108q25 8 36 -16l71 -172q5 -11 0 -21.5t-17 -14.5q-27 -9 -39 16l-59 144l-223 -88l48 -116l111 44q11 4 23 -1t17 -16t-0.5 -22t-16.5 -15l-139 -54q-28 -9 -39 14z" />
<glyph unicode="&#xdc;" horiz-adv-x="1089" vert-adv-y="0" d="M0 582v1027q0 12 8.5 20.5t20.5 8.5h295q12 0 21 -8.5t9 -20.5v-1273q0 -136 59 -207.5t141 -71.5q69 0 117 21.5t78 60t46.5 106t22.5 145t6 192.5v999h-234v-990q0 -111 -11 -176.5t-47 -101.5q-8 -8 -21 -9t-21 7t-8 20.5t8 20.5q26 26 33.5 84t7.5 155v1018 q0 12 8.5 20.5t20.5 8.5h294q12 0 21.5 -8.5t9.5 -20.5v-1027q0 -67 -2 -117t-7 -107.5t-15.5 -99.5t-26.5 -85.5t-41 -72.5t-58.5 -53t-79 -35.5t-101.5 -11.5h-2q-48 0 -93 20.5t-82 60t-59.5 106t-22.5 149.5v1245h-236v-999q0 -206 41.5 -321t132.5 -163q11 -5 13 -16 t-4 -21q-16 -25 -39 -13q-107 56 -155 182.5t-48 351.5zM68 1830q-24 62 4 124q28 60 92 85q62 24 126 -2q62 -28 87 -91t-3 -124q-26 -57 -87 -83q-6 -2 -9 -2q-16 0 -22 14q-4 9 0 18.5t13 13.5q43 18 60 59q21 44 3 87q-19 47 -60 65q-43 18 -91 1q-44 -15 -65 -60 t-3 -88q18 -45 63 -63q9 -4 12.5 -13.5t-0.5 -18.5t-13.5 -12t-18.5 1q-64 26 -88 89zM519 1830q-24 62 4 124q28 60 92 85q62 24 125 -2q62 -28 87 -91t-3 -124q-26 -58 -86 -83q-6 -2 -9 -2q-17 0 -23 14q-4 9 0.5 18.5t13.5 13.5q43 18 60 59q20 43 2 87q-19 47 -60 65 q-42 17 -90 1q-45 -16 -66 -60q-20 -44 -2 -88q19 -45 62 -63q9 -4 12.5 -13.5t-0.5 -18.5q-8 -20 -31 -11q-64 26 -88 89z" />
<glyph unicode="&#xe0;" horiz-adv-x="1296" vert-adv-y="0" d="M2 34l142 597l236 984q2 10 11 16.5t19 6.5h316q10 0 18 -6.5t10 -16.5l236 -983l144 -598q0 -17 -5 -24q-7 -10 -23 -10h-298h-8q-5 0 -12 5q-2 2 -3.5 6t-2.5 5q0 1 -2 4.5t-2 4.5l-42 226l-17 90h-129q-12 0 -21 8.5t-9 20.5t9 21t21 9h151q11 1 20.5 -6.5t11.5 -18.5 l20 -114l38 -204h237l-134 561l-231 960h-270l-230 -960l-134 -561h239l82 451q13 74 50 110t122 36h3h4h91l-91 496l-64 -347q-2 -12 -12.5 -18.5t-22.5 -4.5t-19 12t-5 22l93 503q2 10 10.5 17.5t19.5 7.5q23 0 27 -25l128 -686v-3v-10q0 -3 -6 -12q-2 -2 -10 -8 q-3 -2 -10 -2h-3h-126h-4h-3q-60 0 -82.5 -21t-32.5 -79l-87 -471q0 -1 -0.5 -4.5t-0.5 -4.5q-4 -7 -8 -9q-7 -7 -12 -7h-8h-300q-16 0 -23 10q-9 12 -6 24zM385 1801l36 180q2 12 12 18.5t22 4.5l295 -66q12 -2 18 -11.5t4 -21.5l-38 -181q-2 -12 -12 -18t-22 -4 t-18.5 12.5t-4.5 22.5l31 152l-235 53l-26 -125l118 -26q12 -2 18.5 -12.5t4.5 -22.5t-12 -18.5t-22 -4.5l-146 33q-12 2 -18.5 12.5t-4.5 22.5z" />
<glyph unicode="&#xe1;" horiz-adv-x="1296" vert-adv-y="0" d="M2 34l142 597l236 984q2 10 11 16.5t19 6.5h316q10 0 18 -6.5t10 -16.5l236 -983l144 -598q0 -17 -5 -24q-7 -10 -23 -10h-298h-8q-5 0 -12 5q-2 2 -3.5 6t-2.5 5q0 1 -2 4.5t-2 4.5l-42 226l-17 90h-129q-12 0 -21 8.5t-9 20.5t9 21t21 9h151q11 1 20.5 -6.5t11.5 -18.5 l20 -114l38 -204h237l-134 561l-231 960h-270l-230 -960l-134 -561h239l82 451q13 74 50 110t122 36h3h4h91l-91 496l-64 -347q-2 -12 -12.5 -18.5t-22.5 -4.5t-19 12t-5 22l93 503q2 10 10.5 17.5t19.5 7.5q23 0 27 -25l128 -686v-3v-10q0 -3 -6 -12q-2 -2 -10 -8 q-3 -2 -10 -2h-3h-126h-4h-3q-60 0 -82.5 -21t-32.5 -79l-87 -471q0 -1 -0.5 -4.5t-0.5 -4.5q-4 -7 -8 -9q-7 -7 -12 -7h-8h-300q-16 0 -23 10q-9 12 -6 24zM370 1887q-5 11 0.5 22.5t16.5 15.5l280 108q25 8 36 -16l70 -172q5 -11 0 -21.5t-16 -14.5q-27 -9 -39 16l-59 144 l-223 -88l47 -116l112 44q11 4 22.5 -1t16.5 -16t-0.5 -22t-17.5 -15l-138 -54q-28 -9 -39 14z" />
<glyph unicode="&#xe4;" horiz-adv-x="1296" vert-adv-y="0" d="M2 34l142 597l236 984q2 10 11 16.5t19 6.5h316q10 0 18 -6.5t10 -16.5l236 -983l144 -598q0 -17 -5 -24q-7 -10 -23 -10h-298h-8q-5 0 -12 5q-2 2 -3.5 6t-2.5 5q0 1 -2 4.5t-2 4.5l-42 226l-17 90h-129q-12 0 -21 8.5t-9 20.5t9 21t21 9h151q11 1 20.5 -6.5t11.5 -18.5 l20 -114l38 -204h237l-134 561l-231 960h-270l-230 -960l-134 -561h239l82 451q13 74 50 110t122 36h3h4h91l-91 496l-64 -347q-2 -12 -12.5 -18.5t-22.5 -4.5t-19 12t-5 22l93 503q2 10 10.5 17.5t19.5 7.5q23 0 27 -25l128 -686v-3v-10q0 -3 -6 -12q-2 -2 -10 -8 q-3 -2 -10 -2h-3h-126h-4h-3q-60 0 -82.5 -21t-32.5 -79l-87 -471q0 -1 -0.5 -4.5t-0.5 -4.5q-4 -7 -8 -9q-7 -7 -12 -7h-8h-300q-16 0 -23 10q-9 12 -6 24zM185 1830q-24 62 4 124q28 60 92 85q62 24 126 -2q62 -28 87 -91t-3 -124q-26 -57 -87 -83q-6 -2 -9 -2 q-16 0 -22 14q-4 9 0 18.5t13 13.5q43 18 60 59q21 44 3 87q-19 46 -61 65q-42 17 -90 1q-45 -16 -66 -60q-20 -44 -2 -88q18 -45 63 -63q9 -4 12 -13.5t-1 -18.5q-8 -20 -31 -11q-64 26 -88 89zM636 1830q-24 62 4 124q28 60 91 85q62 24 126 -2q62 -28 87 -91t-3 -124 q-26 -58 -86 -83q-6 -2 -10 -2q-16 0 -22 14q-4 9 0 18.5t13 13.5q44 19 61 59q20 43 2 87q-19 47 -60 65q-43 18 -91 1q-44 -15 -65 -60t-3 -88q18 -45 63 -63q9 -4 12.5 -13.5t-0.5 -18.5q-8 -20 -31 -11q-64 26 -88 89z" />
<glyph unicode="&#xe8;" vert-adv-y="0" d="M0 29v522v1q0 73 51.5 125t125.5 54h3h482v205h-328q-12 0 -20.5 8.5t-8.5 20.5v367q0 12 8.5 21t20.5 9h436v217h-711v-753q0 -12 -9 -20t-21 -8t-20.5 8t-8.5 20v783q0 12 8.5 20.5t20.5 8.5h771q12 0 20.5 -8.5t8.5 -20.5v-277q0 -12 -8.5 -20.5t-20.5 -8.5h-436v-308 h326q12 0 20.5 -9t8.5 -21v-264q0 -12 -8.5 -20t-20.5 -8h-506q-52 0 -88.5 -36t-36.5 -86v-2v-490h711v218h-436q-12 0 -20.5 8.5t-8.5 20.5v204q0 12 8.5 20.5t20.5 8.5t21 -8.5t9 -20.5v-174h436q12 0 20.5 -9t8.5 -21v-277q0 -12 -8.5 -20.5t-20.5 -8.5h-771 q-12 0 -20.5 8.5t-8.5 20.5zM221 1801l36 180q2 12 12.5 18.5t22.5 4.5l293 -66q12 -2 18.5 -11.5t4.5 -21.5l-38 -181q-2 -12 -12 -18t-22 -4t-18.5 12.5t-4.5 22.5l31 152l-234 53l-27 -125l118 -26q12 -2 18.5 -12.5t4.5 -22.5t-12 -18.5t-22 -4.5l-146 33 q-12 2 -18.5 12.5t-4.5 22.5z" />
<glyph unicode="&#xe9;" vert-adv-y="0" d="M0 29v522v1q0 73 51.5 125t125.5 54h3h482v205h-328q-12 0 -20.5 8.5t-8.5 20.5v367q0 12 8.5 21t20.5 9h436v217h-711v-753q0 -12 -9 -20t-21 -8t-20.5 8t-8.5 20v783q0 12 8.5 20.5t20.5 8.5h771q12 0 20.5 -8.5t8.5 -20.5v-277q0 -12 -8.5 -20.5t-20.5 -8.5h-436v-308 h326q12 0 20.5 -9t8.5 -21v-264q0 -12 -8.5 -20t-20.5 -8h-506q-52 0 -88.5 -36t-36.5 -86v-2v-490h711v218h-436q-12 0 -20.5 8.5t-8.5 20.5v204q0 12 8.5 20.5t20.5 8.5t21 -8.5t9 -20.5v-174h436q12 0 20.5 -9t8.5 -21v-277q0 -12 -8.5 -20.5t-20.5 -8.5h-771 q-12 0 -20.5 8.5t-8.5 20.5zM205 1887q-5 11 0.5 22.5t17.5 15.5l280 108q26 9 38 -16l68 -172q5 -11 0 -21.5t-16 -14.5q-27 -9 -39 16l-59 144l-223 -88l47 -116l112 44q11 4 22.5 -1t16.5 -16t0 -22t-16 -15l-141 -54q-27 -9 -38 14z" />
<glyph unicode="&#xeb;" vert-adv-y="0" d="M0 29v522v1q0 73 51.5 125t125.5 54h3h482v205h-328q-12 0 -20.5 8.5t-8.5 20.5v367q0 12 8.5 21t20.5 9h436v217h-711v-753q0 -12 -9 -20t-21 -8t-20.5 8t-8.5 20v783q0 12 8.5 20.5t20.5 8.5h771q12 0 20.5 -8.5t8.5 -20.5v-277q0 -12 -8.5 -20.5t-20.5 -8.5h-436v-308 h326q12 0 20.5 -9t8.5 -21v-264q0 -12 -8.5 -20t-20.5 -8h-506q-52 0 -88.5 -36t-36.5 -86v-2v-490h711v218h-436q-12 0 -20.5 8.5t-8.5 20.5v204q0 12 8.5 20.5t20.5 8.5t21 -8.5t9 -20.5v-174h436q12 0 20.5 -9t8.5 -21v-277q0 -12 -8.5 -20.5t-20.5 -8.5h-771 q-12 0 -20.5 8.5t-8.5 20.5zM48 1830q-24 62 4 124q28 60 92 85q62 24 125 -2q62 -28 87 -91t-3 -124q-26 -58 -86 -83q-6 -2 -9 -2q-17 0 -23 14q-4 9 0 18.5t13 13.5q44 19 61 59q20 43 2 87q-19 47 -60 65q-42 17 -90 1q-45 -16 -66 -60q-21 -45 -3 -88q18 -45 63 -63 q9 -4 12.5 -13.5t-0.5 -18.5q-8 -20 -31 -11q-64 26 -88 89zM498 1830q-24 62 4 124q28 60 92 85q62 24 126 -2q62 -28 87 -91t-3 -124q-26 -57 -87 -83q-6 -2 -9 -2q-16 0 -22 14q-4 9 0 18.5t13 13.5q43 18 60 59q21 44 3 87q-19 47 -60 65q-43 18 -91 1q-44 -15 -65 -60 t-3 -88q18 -45 63 -63q9 -4 12.5 -13.5t-0.5 -18.5t-13.5 -12t-18.5 1q-64 26 -88 89z" />
<glyph unicode="&#xec;" horiz-adv-x="569" vert-adv-y="0" d="M-21 1801l36 180q2 12 12 18.5t22 4.5l293 -66q12 -2 18.5 -11.5t4.5 -21.5l-37 -181q-2 -12 -12.5 -18t-22.5 -4t-18.5 12.5t-4.5 22.5l31 152l-234 53l-26 -125l118 -26q12 -2 18.5 -12.5t4.5 -22.5t-12.5 -18.5t-22.5 -4.5l-145 33q-12 2 -18.5 12.5t-4.5 22.5zM0 29 v1095q0 53 13.5 89t38 52t48 22t54.5 6h36q12 0 21 -9t9 -21t-9 -20.5t-21 -8.5h-36q-50 0 -72.5 -20t-22.5 -90v-1065h238v1520h-238v-149q0 -12 -9 -20.5t-21 -8.5t-20.5 8.5t-8.5 20.5v179q0 12 8.5 20.5t20.5 8.5h295q12 0 21 -8.5t9 -20.5v-1580q0 -12 -9 -20.5 t-21 -8.5h-295q-12 0 -20.5 8.5t-8.5 20.5z" />
<glyph unicode="&#xed;" horiz-adv-x="591" vert-adv-y="0" d="M-18 1887q-5 11 0 22.5t16 15.5l281 108q25 8 36 -16l70 -172q5 -11 0 -21.5t-16 -14.5q-28 -9 -40 16l-57 144l-224 -88l47 -116l111 44q11 4 23 -1t17 -16t-0.5 -22t-16.5 -15l-139 -54q-28 -9 -39 14zM0 29v1095q0 53 13.5 89t38 52t48 22t54.5 6h36q12 0 21 -9t9 -21 t-9 -20.5t-21 -8.5h-36q-50 0 -72.5 -20t-22.5 -90v-1065h238v1520h-238v-149q0 -12 -9 -20.5t-21 -8.5t-20.5 8.5t-8.5 20.5v179q0 12 8.5 20.5t20.5 8.5h295q12 0 21 -8.5t9 -20.5v-1580q0 -12 -9 -20.5t-21 -8.5h-295q-12 0 -20.5 8.5t-8.5 20.5z" />
<glyph unicode="&#xef;" horiz-adv-x="901" vert-adv-y="0" d="M7 1830q-24 62 4 124q28 60 92 85q62 24 125 -2q62 -28 87 -91t-3 -124q-26 -58 -86 -83q-6 -2 -9 -2q-17 0 -23 14q-4 9 0.5 18.5t13.5 13.5q43 18 60 59q20 43 2 87q-19 47 -60 65q-42 17 -90 1q-45 -16 -66 -60q-20 -44 -2 -88q19 -45 62 -63q9 -4 12.5 -13.5 t-0.5 -18.5q-8 -20 -31 -11q-64 26 -88 89zM172 29v1095q0 53 13.5 89t38 52t48 22t54.5 6h36q12 0 21 -9t9 -21t-9 -20.5t-21 -8.5h-36q-50 0 -72.5 -20t-22.5 -90v-1065h238v1520h-238v-149q0 -12 -8.5 -20.5t-20.5 -8.5t-21 8.5t-9 20.5v179q0 12 9 20.5t21 8.5h294 q12 0 21 -8.5t9 -20.5v-1580q0 -12 -9 -20.5t-21 -8.5h-294q-12 0 -21 8.5t-9 20.5zM408 1830q-24 62 4 124q28 60 92 85q62 24 126 -2q62 -28 87 -91t-3 -124q-26 -57 -87 -83q-6 -2 -9 -2q-16 0 -22 14q-4 9 0 18.5t13 13.5q43 18 60 59q21 44 3 87q-19 47 -60 65 q-43 18 -91 1q-44 -15 -65 -60t-3 -88q18 -45 63 -63q9 -4 12.5 -13.5t-0.5 -18.5t-13.5 -12t-18.5 1q-64 26 -88 89z" />
<glyph unicode="&#xf2;" horiz-adv-x="1191" vert-adv-y="0" d="M0 831q0 420 123 626t373 206q91 0 165 -29t124.5 -76t88 -118t59 -143t34.5 -163t17 -167t4 -165q0 -158 -21.5 -299.5t-65.5 -263t-122 -193t-181 -71.5h-3q-57 1 -102 18.5t-70 40t-43.5 58t-24.5 55.5t-13 49l-1 12q-23 96 -18 498v91q0 368 33 461q43 121 134 121 q56 0 89.5 -28.5t54.5 -94.5q30 -97 30 -427q0 -315 -17 -415q-20 -120 -83 -152q-11 -5 -23 -1t-17 15t-1.5 23t14.5 17q37 20 51 108q18 118 18 405q0 318 -28 409q-15 49 -34 65t-54 16q-23 0 -42.5 -16t-36.5 -64q-29 -85 -29 -442q0 -11 -1 -41.5t-1 -49.5 q-5 -388 18 -484l3 -12q7 -29 11.5 -45.5t19.5 -44.5t33.5 -43.5t53 -28t79.5 -12.5h3q70 1 126.5 47t93 121.5t61 176.5t35 205.5t10.5 215.5q0 409 -105 604.5t-326 195.5q-224 0 -330.5 -188t-106.5 -583q0 -427 120 -640q1 -2 6 -9.5t11.5 -17.5t14.5 -20q7 -9 6 -21.5 t-9 -20.5t-21 -7t-20 10q-17 20 -38 54q-129 226 -129 672zM303 1801l36 180q2 12 13 18.5t23 4.5l293 -66q12 -2 18 -11.5t4 -21.5l-38 -181q-2 -12 -12 -18t-22 -4t-18.5 12.5t-4.5 22.5l31 152l-234 53l-25 -125l116 -26q12 -2 18.5 -12.5t4.5 -22.5t-12 -18.5t-22 -4.5 l-146 33q-12 2 -18.5 12.5t-4.5 22.5z" />
<glyph unicode="&#xf3;" horiz-adv-x="1191" vert-adv-y="0" d="M0 831q0 420 123 626t373 206q91 0 165 -29t124.5 -76t88 -118t59 -143t34.5 -163t17 -167t4 -165q0 -158 -21.5 -299.5t-65.5 -263t-122 -193t-181 -71.5h-3q-57 1 -102 18.5t-70 40t-43.5 58t-24.5 55.5t-13 49l-1 12q-23 96 -18 498v91q0 368 33 461q43 121 134 121 q56 0 89.5 -28.5t54.5 -94.5q30 -97 30 -427q0 -315 -17 -415q-20 -120 -83 -152q-11 -5 -23 -1t-17 15t-1.5 23t14.5 17q37 20 51 108q18 118 18 405q0 318 -28 409q-15 49 -34 65t-54 16q-23 0 -42.5 -16t-36.5 -64q-29 -85 -29 -442q0 -11 -1 -41.5t-1 -49.5 q-5 -388 18 -484l3 -12q7 -29 11.5 -45.5t19.5 -44.5t33.5 -43.5t53 -28t79.5 -12.5h3q70 1 126.5 47t93 121.5t61 176.5t35 205.5t10.5 215.5q0 409 -105 604.5t-326 195.5q-224 0 -330.5 -188t-106.5 -583q0 -427 120 -640q1 -2 6 -9.5t11.5 -17.5t14.5 -20q7 -9 6 -21.5 t-9 -20.5t-21 -7t-20 10q-17 20 -38 54q-129 226 -129 672zM288 1887q-5 11 0.5 22.5t16.5 15.5l280 108q25 8 36 -16l70 -172q5 -11 0 -21.5t-16 -14.5q-27 -9 -39 16l-58 144l-224 -88l47 -116l112 44q11 4 22.5 -1t16.5 -16t0 -22t-16 -15l-140 -54q-28 -9 -39 14z" />
<glyph unicode="&#xf6;" horiz-adv-x="1085" vert-adv-y="0" d="M0 831q0 420 123 626t373 206q91 0 165 -29t124.5 -76t88 -118t59 -143t34.5 -163t17 -167t4 -165q0 -158 -21.5 -299.5t-65.5 -263t-122 -193t-181 -71.5h-3q-57 1 -102 18.5t-70 40t-43.5 58t-24.5 55.5t-13 49l-1 12q-23 96 -18 498v91q0 368 33 461q43 121 134 121 q56 0 89.5 -28.5t54.5 -94.5q30 -97 30 -427q0 -315 -17 -415q-20 -120 -83 -152q-11 -5 -23 -1t-17 15t-1.5 23t14.5 17q37 20 51 108q18 118 18 405q0 318 -28 409q-15 49 -34 65t-54 16q-23 0 -42.5 -16t-36.5 -64q-29 -85 -29 -442q0 -11 -1 -41.5t-1 -49.5 q-5 -388 18 -484l3 -12q7 -29 11.5 -45.5t19.5 -44.5t33.5 -43.5t53 -28t79.5 -12.5h3q70 1 126.5 47t93 121.5t61 176.5t35 205.5t10.5 215.5q0 409 -105 604.5t-326 195.5q-224 0 -330.5 -188t-106.5 -583q0 -427 120 -640q1 -2 6 -9.5t11.5 -17.5t14.5 -20q7 -9 6 -21.5 t-9 -20.5t-21 -7t-20 10q-17 20 -38 54q-129 226 -129 672zM109 1830q-24 62 4 124q28 60 92 85q62 24 126 -2q62 -28 87 -91t-3 -124q-26 -57 -87 -83q-6 -2 -9 -2q-16 0 -22 14q-4 9 0 18.5t13 13.5q43 18 60 59q21 44 3 87q-19 47 -60 65q-43 18 -91 1q-44 -15 -65 -60 t-3 -88q18 -45 63 -63q9 -4 12.5 -13.5t-0.5 -18.5t-13.5 -12t-18.5 1q-64 26 -88 89zM560 1830q-24 62 4 124q28 60 92 85q62 24 125 -2q62 -28 87 -91t-3 -124q-26 -58 -86 -83q-6 -2 -9 -2q-17 0 -23 14q-4 9 0 18.5t13 13.5q44 19 61 59q20 43 2 87q-19 47 -60 65 q-42 17 -90 1q-45 -16 -66 -60q-21 -45 -3 -88q18 -45 63 -63q9 -4 12.5 -13.5t-0.5 -18.5q-8 -20 -31 -11q-64 26 -88 89z" />
<glyph unicode="&#xf9;" horiz-adv-x="1089" vert-adv-y="0" d="M0 582v1027q0 12 8.5 20.5t20.5 8.5h295q12 0 21 -8.5t9 -20.5v-1273q0 -136 59 -207.5t141 -71.5q69 0 117 21.5t78 60t46.5 106t22.5 145t6 192.5v999h-234v-990q0 -111 -11 -176.5t-47 -101.5q-8 -8 -21 -9t-21 7t-8 20.5t8 20.5q26 26 33.5 84t7.5 155v1018 q0 12 8.5 20.5t20.5 8.5h294q12 0 21.5 -8.5t9.5 -20.5v-1027q0 -67 -2 -117t-7 -107.5t-15.5 -99.5t-26.5 -85.5t-41 -72.5t-58.5 -53t-79 -35.5t-101.5 -11.5h-2q-48 0 -93 20.5t-82 60t-59.5 106t-22.5 149.5v1245h-236v-999q0 -206 41.5 -321t132.5 -163q11 -5 13 -16 t-4 -21q-16 -25 -39 -13q-107 56 -155 182.5t-48 351.5zM238 1801l36 180q2 12 12 18.5t22 4.5l295 -66q26 -5 21 -33l-37 -181q-2 -12 -12.5 -18t-22.5 -4t-18.5 12.5t-4.5 22.5l31 152l-234 53l-25 -125l117 -26q12 -2 18.5 -12.5t4.5 -22.5t-12.5 -18.5t-22.5 -4.5 l-145 33q-12 2 -18.5 12.5t-4.5 22.5z" />
<glyph unicode="&#xfa;" horiz-adv-x="1089" vert-adv-y="0" d="M0 582v1027q0 12 8.5 20.5t20.5 8.5h295q12 0 21 -8.5t9 -20.5v-1273q0 -136 59 -207.5t141 -71.5q69 0 117 21.5t78 60t46.5 106t22.5 145t6 192.5v999h-234v-990q0 -111 -11 -176.5t-47 -101.5q-8 -8 -21 -9t-21 7t-8 20.5t8 20.5q26 26 33.5 84t7.5 155v1018 q0 12 8.5 20.5t20.5 8.5h294q12 0 21.5 -8.5t9.5 -20.5v-1027q0 -67 -2 -117t-7 -107.5t-15.5 -99.5t-26.5 -85.5t-41 -72.5t-58.5 -53t-79 -35.5t-101.5 -11.5h-2q-48 0 -93 20.5t-82 60t-59.5 106t-22.5 149.5v1245h-236v-999q0 -206 41.5 -321t132.5 -163q11 -5 13 -16 t-4 -21q-16 -25 -39 -13q-107 56 -155 182.5t-48 351.5zM223 1887q-5 11 0 22.5t16 15.5l280 108q25 8 36 -16l71 -172q5 -11 0 -21.5t-17 -14.5q-27 -9 -39 16l-59 144l-223 -88l48 -116l111 44q11 4 23 -1t17 -16t-0.5 -22t-16.5 -15l-139 -54q-28 -9 -39 14z" />
<glyph unicode="&#xfc;" horiz-adv-x="1089" vert-adv-y="0" d="M0 582v1027q0 12 8.5 20.5t20.5 8.5h295q12 0 21 -8.5t9 -20.5v-1273q0 -136 59 -207.5t141 -71.5q69 0 117 21.5t78 60t46.5 106t22.5 145t6 192.5v999h-234v-990q0 -111 -11 -176.5t-47 -101.5q-8 -8 -21 -9t-21 7t-8 20.5t8 20.5q26 26 33.5 84t7.5 155v1018 q0 12 8.5 20.5t20.5 8.5h294q12 0 21.5 -8.5t9.5 -20.5v-1027q0 -67 -2 -117t-7 -107.5t-15.5 -99.5t-26.5 -85.5t-41 -72.5t-58.5 -53t-79 -35.5t-101.5 -11.5h-2q-48 0 -93 20.5t-82 60t-59.5 106t-22.5 149.5v1245h-236v-999q0 -206 41.5 -321t132.5 -163q11 -5 13 -16 t-4 -21q-16 -25 -39 -13q-107 56 -155 182.5t-48 351.5zM68 1830q-24 62 4 124q28 60 92 85q62 24 126 -2q62 -28 87 -91t-3 -124q-26 -57 -87 -83q-6 -2 -9 -2q-16 0 -22 14q-4 9 0 18.5t13 13.5q43 18 60 59q21 44 3 87q-19 47 -60 65q-43 18 -91 1q-44 -15 -65 -60 t-3 -88q18 -45 63 -63q9 -4 12.5 -13.5t-0.5 -18.5t-13.5 -12t-18.5 1q-64 26 -88 89zM519 1830q-24 62 4 124q28 60 92 85q62 24 125 -2q62 -28 87 -91t-3 -124q-26 -58 -86 -83q-6 -2 -9 -2q-17 0 -23 14q-4 9 0.5 18.5t13.5 13.5q43 18 60 59q20 43 2 87q-19 47 -60 65 q-42 17 -90 1q-45 -16 -66 -60q-20 -44 -2 -88q19 -45 62 -63q9 -4 12.5 -13.5t-0.5 -18.5q-8 -20 -31 -11q-64 26 -88 89z" />
<glyph unicode="&#x2000;" horiz-adv-x="1037" vert-adv-y="0" />
<glyph unicode="&#x2001;" horiz-adv-x="2074" vert-adv-y="0" />
<glyph unicode="&#x2002;" horiz-adv-x="1037" vert-adv-y="0" />
<glyph unicode="&#x2003;" horiz-adv-x="2074" vert-adv-y="0" />
<glyph unicode="&#x2004;" horiz-adv-x="691" vert-adv-y="0" />
<glyph unicode="&#x2005;" horiz-adv-x="518" vert-adv-y="0" />
<glyph unicode="&#x2006;" horiz-adv-x="345" vert-adv-y="0" />
<glyph unicode="&#x2007;" horiz-adv-x="345" vert-adv-y="0" />
<glyph unicode="&#x2008;" horiz-adv-x="259" vert-adv-y="0" />
<glyph unicode="&#x2009;" horiz-adv-x="414" vert-adv-y="0" />
<glyph unicode="&#x200a;" horiz-adv-x="115" vert-adv-y="0" />
<glyph unicode="&#x2010;" horiz-adv-x="704" vert-adv-y="0" d="M-3 709v189q0 12 8.5 20.5t20.5 8.5h446q12 0 20.5 -8.5t8.5 -20.5v-189q0 -12 -8.5 -20.5t-20.5 -8.5t-21 8.5t-9 20.5v159h-386v-129h193q12 0 21 -9t9 -21t-9 -19.5t-21 -7.5h-223q-12 0 -20.5 7.5t-8.5 19.5z" />
<glyph unicode="&#x2011;" horiz-adv-x="704" vert-adv-y="0" d="M-3 709v189q0 12 8.5 20.5t20.5 8.5h446q12 0 20.5 -8.5t8.5 -20.5v-189q0 -12 -8.5 -20.5t-20.5 -8.5t-21 8.5t-9 20.5v159h-386v-129h193q12 0 21 -9t9 -21t-9 -19.5t-21 -7.5h-223q-12 0 -20.5 7.5t-8.5 19.5z" />
<glyph unicode="&#x2012;" horiz-adv-x="704" vert-adv-y="0" d="M-3 709v189q0 12 8.5 20.5t20.5 8.5h446q12 0 20.5 -8.5t8.5 -20.5v-189q0 -12 -8.5 -20.5t-20.5 -8.5t-21 8.5t-9 20.5v159h-386v-129h193q12 0 21 -9t9 -21t-9 -19.5t-21 -7.5h-223q-12 0 -20.5 7.5t-8.5 19.5z" />
<glyph unicode="&#x2013;" horiz-adv-x="1224" vert-adv-y="0" d="M-3 709v189q0 12 17.5 20.5t41.5 8.5h906q24 0 41.5 -8.5t17.5 -20.5v-189q0 -12 -17.5 -20.5t-41.5 -8.5t-42.5 8.5t-18.5 20.5v159h-784v-129h392q24 0 42.5 -9t18.5 -21t-18.5 -19.5t-42.5 -7.5h-453q-24 0 -41.5 7.5t-17.5 19.5z" />
<glyph unicode="&#x2014;" horiz-adv-x="2248" vert-adv-y="0" d="M-3 709v189q0 12 34.5 20.5t83.5 8.5h1812q49 0 83.5 -8.5t34.5 -20.5v-189q0 -12 -34.5 -20.5t-83.5 -8.5t-85.5 8.5t-36.5 20.5v159h-1568v-129h784q49 0 85.5 -9t36.5 -21t-36.5 -19.5t-85.5 -7.5h-906q-49 0 -83.5 7.5t-34.5 19.5z" />
<glyph unicode="&#x202f;" horiz-adv-x="414" vert-adv-y="0" />
<glyph unicode="&#x205f;" horiz-adv-x="518" vert-adv-y="0" />
<glyph unicode="&#x25fc;" horiz-adv-x="1638" vert-adv-y="3276" d="M0 0v1638h1638v-1638h-1638z" />
</font>
</defs>
</svg>
